<mxfile host="app.diagrams.net" agent="Mozilla/5.0 (Windows NT 10.0; Win64; x64) AppleWebKit/537.36 (KHTML, like Gecko) Chrome/135.0.0.0 Safari/537.36" version="27.0.1">
  <diagram name="Page-1" id="OqS1zpWbOdB1CPwai2Lr">
    <mxGraphModel dx="5705" dy="4140" grid="0" gridSize="10" guides="1" tooltips="1" connect="1" arrows="1" fold="1" page="1" pageScale="1" pageWidth="850" pageHeight="1100" background="#ffffff" math="0" shadow="1">
      <root>
        <mxCell id="0" />
        <mxCell id="1" parent="0" />
        <mxCell id="Jv0Wbk9GjLyNe4X2V1_I-43" value="" style="shape=folder;fontStyle=1;spacingTop=10;tabWidth=205;tabHeight=34;tabPosition=left;html=1;whiteSpace=wrap;" parent="1" vertex="1">
          <mxGeometry x="-2306" y="-422" width="428" height="279" as="geometry" />
        </mxCell>
        <mxCell id="4MrUlmJJ-RdR6S4KyqIs-12" value="EventEntity" style="swimlane;fontStyle=1;align=center;verticalAlign=top;childLayout=stackLayout;horizontal=1;startSize=26;horizontalStack=0;resizeParent=1;resizeParentMax=0;resizeLast=0;collapsible=1;marginBottom=0;whiteSpace=wrap;html=1;fillColor=#00FF51;strokeColor=#000000;fontColor=#000000;" parent="1" vertex="1" collapsed="1">
          <mxGeometry x="-2066" y="-314" width="150" height="26" as="geometry">
            <mxRectangle x="-2776" y="2017" width="320" height="712" as="alternateBounds" />
          </mxGeometry>
        </mxCell>
        <mxCell id="4MrUlmJJ-RdR6S4KyqIs-13" value="-id: integer&lt;span style=&quot;white-space: pre;&quot;&gt;&#x9;&lt;/span&gt;" style="text;strokeColor=#000000;fillColor=#00FF51;align=left;verticalAlign=top;spacingLeft=4;spacingRight=4;overflow=hidden;rotatable=0;points=[[0,0.5],[1,0.5]];portConstraint=eastwest;whiteSpace=wrap;html=1;fontColor=#000000;" parent="4MrUlmJJ-RdR6S4KyqIs-12" vertex="1">
          <mxGeometry y="26" width="320" height="26" as="geometry" />
        </mxCell>
        <mxCell id="8rEBr2aL7rWZqsQNYB0q-38" value="-ownerId: integer" style="text;strokeColor=#000000;fillColor=#00FF51;align=left;verticalAlign=top;spacingLeft=4;spacingRight=4;overflow=hidden;rotatable=0;points=[[0,0.5],[1,0.5]];portConstraint=eastwest;whiteSpace=wrap;html=1;fontColor=#000000;" parent="4MrUlmJJ-RdR6S4KyqIs-12" vertex="1">
          <mxGeometry y="52" width="320" height="26" as="geometry" />
        </mxCell>
        <mxCell id="4MrUlmJJ-RdR6S4KyqIs-16" value="-name: string" style="text;strokeColor=#000000;fillColor=#00FF51;align=left;verticalAlign=top;spacingLeft=4;spacingRight=4;overflow=hidden;rotatable=0;points=[[0,0.5],[1,0.5]];portConstraint=eastwest;whiteSpace=wrap;html=1;fontColor=#000000;" parent="4MrUlmJJ-RdR6S4KyqIs-12" vertex="1">
          <mxGeometry y="78" width="320" height="26" as="geometry" />
        </mxCell>
        <mxCell id="4MrUlmJJ-RdR6S4KyqIs-18" value="-description: string&lt;span style=&quot;white-space: pre;&quot;&gt;&#x9;&lt;/span&gt;" style="text;strokeColor=#000000;fillColor=#00FF51;align=left;verticalAlign=top;spacingLeft=4;spacingRight=4;overflow=hidden;rotatable=0;points=[[0,0.5],[1,0.5]];portConstraint=eastwest;whiteSpace=wrap;html=1;fontColor=#000000;" parent="4MrUlmJJ-RdR6S4KyqIs-12" vertex="1">
          <mxGeometry y="104" width="320" height="26" as="geometry" />
        </mxCell>
        <mxCell id="4MrUlmJJ-RdR6S4KyqIs-17" value="-dateTime: DateTime" style="text;strokeColor=#000000;fillColor=#00FF51;align=left;verticalAlign=top;spacingLeft=4;spacingRight=4;overflow=hidden;rotatable=0;points=[[0,0.5],[1,0.5]];portConstraint=eastwest;whiteSpace=wrap;html=1;fontColor=#000000;" parent="4MrUlmJJ-RdR6S4KyqIs-12" vertex="1">
          <mxGeometry y="130" width="320" height="26" as="geometry" />
        </mxCell>
        <mxCell id="4MrUlmJJ-RdR6S4KyqIs-19" value="-location: string" style="text;strokeColor=#000000;fillColor=#00FF51;align=left;verticalAlign=top;spacingLeft=4;spacingRight=4;overflow=hidden;rotatable=0;points=[[0,0.5],[1,0.5]];portConstraint=eastwest;whiteSpace=wrap;html=1;fontColor=#000000;" parent="4MrUlmJJ-RdR6S4KyqIs-12" vertex="1">
          <mxGeometry y="156" width="320" height="26" as="geometry" />
        </mxCell>
        <mxCell id="4MrUlmJJ-RdR6S4KyqIs-21" value="- images: String[]" style="text;strokeColor=#000000;fillColor=#00FF51;align=left;verticalAlign=top;spacingLeft=4;spacingRight=4;overflow=hidden;rotatable=0;points=[[0,0.5],[1,0.5]];portConstraint=eastwest;whiteSpace=wrap;html=1;fontColor=#000000;" parent="4MrUlmJJ-RdR6S4KyqIs-12" vertex="1">
          <mxGeometry y="182" width="320" height="26" as="geometry" />
        </mxCell>
        <mxCell id="CeRw56cfuyo3TGLGe_MA-149" value="- tags: String[]" style="text;strokeColor=#000000;fillColor=#00FF51;align=left;verticalAlign=top;spacingLeft=4;spacingRight=4;overflow=hidden;rotatable=0;points=[[0,0.5],[1,0.5]];portConstraint=eastwest;whiteSpace=wrap;html=1;fontColor=#000000;" parent="4MrUlmJJ-RdR6S4KyqIs-12" vertex="1">
          <mxGeometry y="208" width="320" height="26" as="geometry" />
        </mxCell>
        <mxCell id="4MrUlmJJ-RdR6S4KyqIs-78" value="- likes: integer" style="text;strokeColor=#000000;fillColor=#00FF51;align=left;verticalAlign=top;spacingLeft=4;spacingRight=4;overflow=hidden;rotatable=0;points=[[0,0.5],[1,0.5]];portConstraint=eastwest;whiteSpace=wrap;html=1;fontColor=#000000;" parent="4MrUlmJJ-RdR6S4KyqIs-12" vertex="1">
          <mxGeometry y="234" width="320" height="26" as="geometry" />
        </mxCell>
        <mxCell id="ba5yC0drVQ4_OKnRPl2F-7" style="line;strokeWidth=1;fillColor=#00FF51;align=left;verticalAlign=middle;spacingTop=-1;spacingLeft=3;spacingRight=3;rotatable=0;labelPosition=right;points=[];portConstraint=eastwest;strokeColor=#000000;fontColor=#000000;" parent="4MrUlmJJ-RdR6S4KyqIs-12" vertex="1">
          <mxGeometry y="260" width="320" height="10" as="geometry" />
        </mxCell>
        <mxCell id="TtvQXbVJvoLlcyAV71Qk-146" value="&lt;div&gt;+ EventEntity(id: Integer, ownerId: Integer, name: String, description: String, dateTime: DateTime, location: String, images: String[], tags: String[], likes: int=0)&lt;/div&gt;&lt;div&gt;&lt;br&gt;&lt;/div&gt;" style="text;strokeColor=#000000;fillColor=#00FF51;align=left;verticalAlign=top;spacingLeft=4;spacingRight=4;overflow=hidden;rotatable=0;whiteSpace=wrap;html=1;fontColor=#000000;" parent="4MrUlmJJ-RdR6S4KyqIs-12" vertex="1">
          <mxGeometry y="270" width="320" height="26" as="geometry" />
        </mxCell>
        <mxCell id="4" value="+ setLikes(likes: Integer): void" style="text;strokeColor=#000000;fillColor=#00FF51;align=left;verticalAlign=top;spacingLeft=4;spacingRight=4;overflow=hidden;rotatable=0;whiteSpace=wrap;html=1;fontColor=#000000;" parent="4MrUlmJJ-RdR6S4KyqIs-12" vertex="1">
          <mxGeometry y="296" width="320" height="26" as="geometry" />
        </mxCell>
        <mxCell id="5" value="+ getLikes(): Integer" style="text;strokeColor=#000000;fillColor=#00FF51;align=left;verticalAlign=top;spacingLeft=4;spacingRight=4;overflow=hidden;rotatable=0;whiteSpace=wrap;html=1;fontColor=#000000;" parent="4MrUlmJJ-RdR6S4KyqIs-12" vertex="1">
          <mxGeometry y="322" width="320" height="26" as="geometry" />
        </mxCell>
        <mxCell id="2" value="+ setTags(tags: String[]): void" style="text;strokeColor=#000000;fillColor=#00FF51;align=left;verticalAlign=top;spacingLeft=4;spacingRight=4;overflow=hidden;rotatable=0;whiteSpace=wrap;html=1;fontColor=#000000;" parent="4MrUlmJJ-RdR6S4KyqIs-12" vertex="1">
          <mxGeometry y="348" width="320" height="26" as="geometry" />
        </mxCell>
        <mxCell id="3" value="+ getTags(): String[]" style="text;strokeColor=#000000;fillColor=#00FF51;align=left;verticalAlign=top;spacingLeft=4;spacingRight=4;overflow=hidden;rotatable=0;whiteSpace=wrap;html=1;fontColor=#000000;" parent="4MrUlmJJ-RdR6S4KyqIs-12" vertex="1">
          <mxGeometry y="374" width="320" height="26" as="geometry" />
        </mxCell>
        <mxCell id="6" value="+ setImages(images: String[]): void" style="text;strokeColor=#000000;fillColor=#00FF51;align=left;verticalAlign=top;spacingLeft=4;spacingRight=4;overflow=hidden;rotatable=0;whiteSpace=wrap;html=1;fontColor=#000000;" parent="4MrUlmJJ-RdR6S4KyqIs-12" vertex="1">
          <mxGeometry y="400" width="320" height="26" as="geometry" />
        </mxCell>
        <mxCell id="7" value="+ getImages(): String[]" style="text;strokeColor=#000000;fillColor=#00FF51;align=left;verticalAlign=top;spacingLeft=4;spacingRight=4;overflow=hidden;rotatable=0;whiteSpace=wrap;html=1;fontColor=#000000;" parent="4MrUlmJJ-RdR6S4KyqIs-12" vertex="1">
          <mxGeometry y="426" width="320" height="26" as="geometry" />
        </mxCell>
        <mxCell id="10" value="+ setLocation(location: String): void" style="text;strokeColor=#000000;fillColor=#00FF51;align=left;verticalAlign=top;spacingLeft=4;spacingRight=4;overflow=hidden;rotatable=0;whiteSpace=wrap;html=1;fontColor=#000000;" parent="4MrUlmJJ-RdR6S4KyqIs-12" vertex="1">
          <mxGeometry y="452" width="320" height="26" as="geometry" />
        </mxCell>
        <mxCell id="11" value="+ getLocation(): String" style="text;strokeColor=#000000;fillColor=#00FF51;align=left;verticalAlign=top;spacingLeft=4;spacingRight=4;overflow=hidden;rotatable=0;whiteSpace=wrap;html=1;fontColor=#000000;" parent="4MrUlmJJ-RdR6S4KyqIs-12" vertex="1">
          <mxGeometry y="478" width="320" height="26" as="geometry" />
        </mxCell>
        <mxCell id="12" value="+ setDateTime(dateTime: DateTime): void" style="text;strokeColor=#000000;fillColor=#00FF51;align=left;verticalAlign=top;spacingLeft=4;spacingRight=4;overflow=hidden;rotatable=0;whiteSpace=wrap;html=1;fontColor=#000000;" parent="4MrUlmJJ-RdR6S4KyqIs-12" vertex="1">
          <mxGeometry y="504" width="320" height="26" as="geometry" />
        </mxCell>
        <mxCell id="13" value="+ getDateTime(): DateTime" style="text;strokeColor=#000000;fillColor=#00FF51;align=left;verticalAlign=top;spacingLeft=4;spacingRight=4;overflow=hidden;rotatable=0;whiteSpace=wrap;html=1;fontColor=#000000;" parent="4MrUlmJJ-RdR6S4KyqIs-12" vertex="1">
          <mxGeometry y="530" width="320" height="26" as="geometry" />
        </mxCell>
        <mxCell id="14" value="+ setDescription(description: String): void" style="text;strokeColor=#000000;fillColor=#00FF51;align=left;verticalAlign=top;spacingLeft=4;spacingRight=4;overflow=hidden;rotatable=0;whiteSpace=wrap;html=1;fontColor=#000000;" parent="4MrUlmJJ-RdR6S4KyqIs-12" vertex="1">
          <mxGeometry y="556" width="320" height="26" as="geometry" />
        </mxCell>
        <mxCell id="15" value="+ getDescription(): String" style="text;strokeColor=#000000;fillColor=#00FF51;align=left;verticalAlign=top;spacingLeft=4;spacingRight=4;overflow=hidden;rotatable=0;whiteSpace=wrap;html=1;fontColor=#000000;" parent="4MrUlmJJ-RdR6S4KyqIs-12" vertex="1">
          <mxGeometry y="582" width="320" height="26" as="geometry" />
        </mxCell>
        <mxCell id="16" value="+ setName(name: String): void" style="text;strokeColor=#000000;fillColor=#00FF51;align=left;verticalAlign=top;spacingLeft=4;spacingRight=4;overflow=hidden;rotatable=0;whiteSpace=wrap;html=1;fontColor=#000000;" parent="4MrUlmJJ-RdR6S4KyqIs-12" vertex="1">
          <mxGeometry y="608" width="320" height="26" as="geometry" />
        </mxCell>
        <mxCell id="17" value="+ getName(): String" style="text;strokeColor=#000000;fillColor=#00FF51;align=left;verticalAlign=top;spacingLeft=4;spacingRight=4;overflow=hidden;rotatable=0;whiteSpace=wrap;html=1;fontColor=#000000;" parent="4MrUlmJJ-RdR6S4KyqIs-12" vertex="1">
          <mxGeometry y="634" width="320" height="26" as="geometry" />
        </mxCell>
        <mxCell id="18" value="+ setId(id: Integer): void" style="text;strokeColor=#000000;fillColor=#00FF51;align=left;verticalAlign=top;spacingLeft=4;spacingRight=4;overflow=hidden;rotatable=0;whiteSpace=wrap;html=1;fontColor=#000000;" parent="4MrUlmJJ-RdR6S4KyqIs-12" vertex="1">
          <mxGeometry y="660" width="320" height="26" as="geometry" />
        </mxCell>
        <mxCell id="19" value="+ getId(): Integer" style="text;strokeColor=#000000;fillColor=#00FF51;align=left;verticalAlign=top;spacingLeft=4;spacingRight=4;overflow=hidden;rotatable=0;whiteSpace=wrap;html=1;fontColor=#000000;" parent="4MrUlmJJ-RdR6S4KyqIs-12" vertex="1">
          <mxGeometry y="686" width="320" height="26" as="geometry" />
        </mxCell>
        <mxCell id="4MrUlmJJ-RdR6S4KyqIs-23" value="VenueEntity" style="swimlane;fontStyle=1;align=center;verticalAlign=top;childLayout=stackLayout;horizontal=1;startSize=26;horizontalStack=0;resizeParent=1;resizeParentMax=0;resizeLast=0;collapsible=1;marginBottom=0;whiteSpace=wrap;html=1;fillColor=#00FF51;strokeColor=#000000;fontColor=#000000;" parent="1" vertex="1">
          <mxGeometry x="-3291" y="-464" width="360" height="294" as="geometry">
            <mxRectangle x="-2872.5" y="18.95" width="150" height="26" as="alternateBounds" />
          </mxGeometry>
        </mxCell>
        <mxCell id="4MrUlmJJ-RdR6S4KyqIs-27" value="-location: string" style="text;strokeColor=#000000;fillColor=#00FF51;align=left;verticalAlign=top;spacingLeft=4;spacingRight=4;overflow=hidden;rotatable=0;points=[[0,0.5],[1,0.5]];portConstraint=eastwest;whiteSpace=wrap;html=1;fontColor=#000000;" parent="4MrUlmJJ-RdR6S4KyqIs-23" vertex="1">
          <mxGeometry y="26" width="360" height="26" as="geometry" />
        </mxCell>
        <mxCell id="4MrUlmJJ-RdR6S4KyqIs-31" value="-taxIdentificationNumHashed: int" style="text;strokeColor=#000000;fillColor=#00FF51;align=left;verticalAlign=top;spacingLeft=4;spacingRight=4;overflow=hidden;rotatable=0;points=[[0,0.5],[1,0.5]];portConstraint=eastwest;whiteSpace=wrap;html=1;fontColor=#000000;" parent="4MrUlmJJ-RdR6S4KyqIs-23" vertex="1">
          <mxGeometry y="52" width="360" height="26" as="geometry" />
        </mxCell>
        <mxCell id="4MrUlmJJ-RdR6S4KyqIs-30" value="-businessRegistrationNumHashed: int" style="text;strokeColor=#000000;fillColor=#00FF51;align=left;verticalAlign=top;spacingLeft=4;spacingRight=4;overflow=hidden;rotatable=0;points=[[0,0.5],[1,0.5]];portConstraint=eastwest;whiteSpace=wrap;html=1;fontColor=#000000;" parent="4MrUlmJJ-RdR6S4KyqIs-23" vertex="1">
          <mxGeometry y="78" width="360" height="26" as="geometry" />
        </mxCell>
        <mxCell id="4MrUlmJJ-RdR6S4KyqIs-25" value="" style="line;strokeWidth=1;fillColor=#00FF51;align=left;verticalAlign=middle;spacingTop=-1;spacingLeft=3;spacingRight=3;rotatable=0;labelPosition=right;points=[];portConstraint=eastwest;strokeColor=#000000;fontColor=#000000;" parent="4MrUlmJJ-RdR6S4KyqIs-23" vertex="1">
          <mxGeometry y="104" width="360" height="8" as="geometry" />
        </mxCell>
        <mxCell id="TtvQXbVJvoLlcyAV71Qk-149" value="&lt;div&gt;+ VenueEntity(id: Integer, email: String, password: String, name: String, profilePictureUrl: String, preferences: String[], bio: String, isVerified: bool&lt;span style=&quot;background-color: transparent;&quot;&gt;,&amp;nbsp;&lt;/span&gt;&lt;span style=&quot;background-color: transparent;&quot;&gt;likedEventsIds: int[],&amp;nbsp;&lt;/span&gt;&lt;span style=&quot;background-color: transparent;&quot;&gt;followedAccountsIds: int[]&lt;/span&gt;&lt;span style=&quot;background-color: transparent;&quot;&gt;, location: String, taxIdentificationNumHashed: String, businessRegistrationNumHashed: String)&lt;/span&gt;&lt;/div&gt;&lt;div&gt;&lt;br&gt;&lt;/div&gt;" style="text;strokeColor=#000000;fillColor=#00FF51;align=left;verticalAlign=top;spacingLeft=4;spacingRight=4;overflow=hidden;rotatable=0;whiteSpace=wrap;html=1;fontColor=#000000;" parent="4MrUlmJJ-RdR6S4KyqIs-23" vertex="1">
          <mxGeometry y="112" width="360" height="26" as="geometry" />
        </mxCell>
        <mxCell id="20" value="+ setBusinessRegistrationNumHashed(brn: int): void" style="text;strokeColor=#000000;fillColor=#00FF51;align=left;verticalAlign=top;spacingLeft=4;spacingRight=4;overflow=hidden;rotatable=0;whiteSpace=wrap;html=1;fontColor=#000000;" parent="4MrUlmJJ-RdR6S4KyqIs-23" vertex="1">
          <mxGeometry y="138" width="360" height="26" as="geometry" />
        </mxCell>
        <mxCell id="21" value="+ getBusinessRegistrationNumHashed(): int" style="text;strokeColor=#000000;fillColor=#00FF51;align=left;verticalAlign=top;spacingLeft=4;spacingRight=4;overflow=hidden;rotatable=0;whiteSpace=wrap;html=1;fontColor=#000000;" parent="4MrUlmJJ-RdR6S4KyqIs-23" vertex="1">
          <mxGeometry y="164" width="360" height="26" as="geometry" />
        </mxCell>
        <mxCell id="22" value="+ setTaxIdentificationNumHashed(tin: int): void" style="text;strokeColor=#000000;fillColor=#00FF51;align=left;verticalAlign=top;spacingLeft=4;spacingRight=4;overflow=hidden;rotatable=0;whiteSpace=wrap;html=1;fontColor=#000000;" parent="4MrUlmJJ-RdR6S4KyqIs-23" vertex="1">
          <mxGeometry y="190" width="360" height="26" as="geometry" />
        </mxCell>
        <mxCell id="23" value="+ getTaxIdentificationNumHashed(): int" style="text;strokeColor=#000000;fillColor=#00FF51;align=left;verticalAlign=top;spacingLeft=4;spacingRight=4;overflow=hidden;rotatable=0;whiteSpace=wrap;html=1;fontColor=#000000;" parent="4MrUlmJJ-RdR6S4KyqIs-23" vertex="1">
          <mxGeometry y="216" width="360" height="26" as="geometry" />
        </mxCell>
        <mxCell id="24" value="+ setLocation(location: String): void" style="text;strokeColor=#000000;fillColor=#00FF51;align=left;verticalAlign=top;spacingLeft=4;spacingRight=4;overflow=hidden;rotatable=0;whiteSpace=wrap;html=1;fontColor=#000000;" parent="4MrUlmJJ-RdR6S4KyqIs-23" vertex="1">
          <mxGeometry y="242" width="360" height="26" as="geometry" />
        </mxCell>
        <mxCell id="25" value="+ getLocation(): String" style="text;strokeColor=#000000;fillColor=#00FF51;align=left;verticalAlign=top;spacingLeft=4;spacingRight=4;overflow=hidden;rotatable=0;whiteSpace=wrap;html=1;fontColor=#000000;" parent="4MrUlmJJ-RdR6S4KyqIs-23" vertex="1">
          <mxGeometry y="268" width="360" height="26" as="geometry" />
        </mxCell>
        <mxCell id="4MrUlmJJ-RdR6S4KyqIs-71" value="EventController" style="swimlane;fontStyle=1;align=center;verticalAlign=top;childLayout=stackLayout;horizontal=1;startSize=26;horizontalStack=0;resizeParent=1;resizeParentMax=0;resizeLast=0;collapsible=1;marginBottom=0;whiteSpace=wrap;html=1;fillColor=light-dark(#FFFF00,#FFFF33);strokeColor=#000000;" parent="1" vertex="1" collapsed="1">
          <mxGeometry x="-2079" y="-247" width="185" height="26" as="geometry">
            <mxRectangle x="-4547" y="2231" width="731" height="216" as="alternateBounds" />
          </mxGeometry>
        </mxCell>
        <mxCell id="4MrUlmJJ-RdR6S4KyqIs-73" value="" style="line;strokeWidth=1;fillColor=light-dark(#FFFF00,#FFFF33);align=left;verticalAlign=middle;spacingTop=-1;spacingLeft=3;spacingRight=3;rotatable=0;labelPosition=right;points=[];portConstraint=eastwest;strokeColor=#000000;" parent="4MrUlmJJ-RdR6S4KyqIs-71" vertex="1">
          <mxGeometry y="26" width="731" height="8" as="geometry" />
        </mxCell>
        <mxCell id="TtvQXbVJvoLlcyAV71Qk-139" value="+ EventController()" style="text;strokeColor=#000000;fillColor=light-dark(#FFFF00,#FFFF33);align=left;verticalAlign=top;spacingLeft=4;spacingRight=4;overflow=hidden;rotatable=0;points=[[0,0.5],[1,0.5]];portConstraint=eastwest;whiteSpace=wrap;html=1;" parent="4MrUlmJJ-RdR6S4KyqIs-71" vertex="1">
          <mxGeometry y="34" width="731" height="26" as="geometry" />
        </mxCell>
        <mxCell id="4MrUlmJJ-RdR6S4KyqIs-79" value="+&amp;nbsp;&lt;span style=&quot;background-color: transparent;&quot;&gt;likeEvent(accountId: int, eventId: int): void&lt;/span&gt;" style="text;strokeColor=#000000;fillColor=light-dark(#FFFF00,#FFFF33);align=left;verticalAlign=top;spacingLeft=4;spacingRight=4;overflow=hidden;rotatable=0;points=[[0,0.5],[1,0.5]];portConstraint=eastwest;whiteSpace=wrap;html=1;" parent="4MrUlmJJ-RdR6S4KyqIs-71" vertex="1">
          <mxGeometry y="60" width="731" height="26" as="geometry" />
        </mxCell>
        <mxCell id="6jnvJd_KVT4TXYjh_vCa-102" value="+ registerEventReminder(accountId: int, eventId: int): void" style="text;strokeColor=#000000;fillColor=light-dark(#FFFF00,#FFFF00);align=left;verticalAlign=top;spacingLeft=4;spacingRight=4;overflow=hidden;rotatable=0;points=[[0,0.5],[1,0.5]];portConstraint=eastwest;whiteSpace=wrap;html=1;fontColor=#000000;" parent="4MrUlmJJ-RdR6S4KyqIs-71" vertex="1">
          <mxGeometry y="86" width="731" height="26" as="geometry" />
        </mxCell>
        <mxCell id="4MrUlmJJ-RdR6S4KyqIs-74" value="+ createEvent(name: String, ownerId: int, description: String, date: Date, location: String, startingTime: Time, images: String[]): void" style="text;strokeColor=#000000;fillColor=light-dark(#FFFF00,#FFFF33);align=left;verticalAlign=top;spacingLeft=4;spacingRight=4;overflow=hidden;rotatable=0;points=[[0,0.5],[1,0.5]];portConstraint=eastwest;whiteSpace=wrap;html=1;" parent="4MrUlmJJ-RdR6S4KyqIs-71" vertex="1">
          <mxGeometry y="112" width="731" height="26" as="geometry" />
        </mxCell>
        <mxCell id="4MrUlmJJ-RdR6S4KyqIs-76" value="+ editEvent(id: int, ownerId: int, name: String, description: String, date: Date, location: String, startingTime: Time, images: String[]): void" style="text;strokeColor=#000000;fillColor=light-dark(#FFFF00,#FFFF33);align=left;verticalAlign=top;spacingLeft=4;spacingRight=4;overflow=hidden;rotatable=0;points=[[0,0.5],[1,0.5]];portConstraint=eastwest;whiteSpace=wrap;html=1;" parent="4MrUlmJJ-RdR6S4KyqIs-71" vertex="1">
          <mxGeometry y="138" width="731" height="26" as="geometry" />
        </mxCell>
        <mxCell id="4MrUlmJJ-RdR6S4KyqIs-75" value="+ deleteEvent(eventId: int): void" style="text;strokeColor=#000000;fillColor=light-dark(#FFFF00,#FFFF33);align=left;verticalAlign=top;spacingLeft=4;spacingRight=4;overflow=hidden;rotatable=0;points=[[0,0.5],[1,0.5]];portConstraint=eastwest;whiteSpace=wrap;html=1;" parent="4MrUlmJJ-RdR6S4KyqIs-71" vertex="1">
          <mxGeometry y="164" width="731" height="26" as="geometry" />
        </mxCell>
        <mxCell id="8rEBr2aL7rWZqsQNYB0q-42" value="+ getEvent(eventId: int): EventEntity" style="text;strokeColor=#000000;fillColor=light-dark(#FFFF00,#FFFF33);align=left;verticalAlign=top;spacingLeft=4;spacingRight=4;overflow=hidden;rotatable=0;points=[[0,0.5],[1,0.5]];portConstraint=eastwest;whiteSpace=wrap;html=1;" parent="4MrUlmJJ-RdR6S4KyqIs-71" vertex="1">
          <mxGeometry y="190" width="731" height="26" as="geometry" />
        </mxCell>
        <mxCell id="PC12vPVq4i0meeTjriCz-41" style="edgeStyle=orthogonalEdgeStyle;rounded=0;orthogonalLoop=1;jettySize=auto;html=1;exitX=0.25;exitY=1;exitDx=0;exitDy=0;entryX=0.5;entryY=0;entryDx=0;entryDy=0;endArrow=none;startFill=0;" parent="1" source="CeRw56cfuyo3TGLGe_MA-101" target="U0l2AVK42Dn3-A5_-HGm-49" edge="1">
          <mxGeometry relative="1" as="geometry" />
        </mxCell>
        <mxCell id="PC12vPVq4i0meeTjriCz-44" style="edgeStyle=orthogonalEdgeStyle;rounded=0;orthogonalLoop=1;jettySize=auto;html=1;exitX=0.5;exitY=0;exitDx=0;exitDy=0;entryX=0.5;entryY=1;entryDx=0;entryDy=0;endArrow=none;startFill=0;" parent="1" source="CeRw56cfuyo3TGLGe_MA-101" target="4MrUlmJJ-RdR6S4KyqIs-71" edge="1">
          <mxGeometry relative="1" as="geometry" />
        </mxCell>
        <mxCell id="CeRw56cfuyo3TGLGe_MA-101" value="AccountController" style="swimlane;fontStyle=1;align=center;verticalAlign=top;childLayout=stackLayout;horizontal=1;startSize=26;horizontalStack=0;resizeParent=1;resizeParentMax=0;resizeLast=0;collapsible=1;marginBottom=0;whiteSpace=wrap;html=1;fillColor=light-dark(#FFFF00,#FFFF33);fontColor=#000000;strokeColor=#000000;" parent="1" vertex="1">
          <mxGeometry x="-2677" y="58" width="1170" height="346" as="geometry">
            <mxRectangle x="-2633" y="283" width="185" height="26" as="alternateBounds" />
          </mxGeometry>
        </mxCell>
        <mxCell id="CeRw56cfuyo3TGLGe_MA-103" value="" style="line;strokeWidth=1;align=left;verticalAlign=middle;spacingTop=-1;spacingLeft=3;spacingRight=3;rotatable=0;labelPosition=right;points=[];portConstraint=eastwest;fillColor=light-dark(#FFFF00,#FFFF33);fontColor=#000000;strokeColor=#000000;" parent="CeRw56cfuyo3TGLGe_MA-101" vertex="1">
          <mxGeometry y="26" width="1170" height="8" as="geometry" />
        </mxCell>
        <mxCell id="TtvQXbVJvoLlcyAV71Qk-135" value="+ AccountController()" style="text;align=left;verticalAlign=top;spacingLeft=4;spacingRight=4;overflow=hidden;rotatable=0;points=[[0,0.5],[1,0.5]];portConstraint=eastwest;whiteSpace=wrap;html=1;fillColor=light-dark(#FFFF00,#FFFF33);fontColor=#000000;strokeColor=#000000;" parent="CeRw56cfuyo3TGLGe_MA-101" vertex="1">
          <mxGeometry y="34" width="1170" height="26" as="geometry" />
        </mxCell>
        <mxCell id="CeRw56cfuyo3TGLGe_MA-132" value="+ login(email: String, password: String): void&lt;div&gt;&lt;br&gt;&lt;/div&gt;" style="text;align=left;verticalAlign=top;spacingLeft=4;spacingRight=4;overflow=hidden;rotatable=0;points=[[0,0.5],[1,0.5]];portConstraint=eastwest;whiteSpace=wrap;html=1;fillColor=light-dark(#FFFF00,#FFFF33);fontColor=#000000;strokeColor=#000000;" parent="CeRw56cfuyo3TGLGe_MA-101" vertex="1">
          <mxGeometry y="60" width="1170" height="26" as="geometry" />
        </mxCell>
        <mxCell id="CeRw56cfuyo3TGLGe_MA-130" value="+ createAccount(email: String, name: String, password: String, bio: String, profilePictureUrl: String, preferences: String[]): void" style="text;align=left;verticalAlign=top;spacingLeft=4;spacingRight=4;overflow=hidden;rotatable=0;points=[[0,0.5],[1,0.5]];portConstraint=eastwest;whiteSpace=wrap;html=1;fillColor=light-dark(#FFFF00,#FFFF33);fontColor=#000000;strokeColor=#000000;" parent="CeRw56cfuyo3TGLGe_MA-101" vertex="1">
          <mxGeometry y="86" width="1170" height="26" as="geometry" />
        </mxCell>
        <mxCell id="H2AgAY1qbFDTJF13Do6O-36" value="+ createVenueAccount(email: String, name: String, password: String, bio: String, profilePictureUrl: String.&amp;nbsp;venueLocation: String, venueTaxIdentificationNumHashed: int, venueBusinessRegistrationNumHashed: int): void" style="text;align=left;verticalAlign=top;spacingLeft=4;spacingRight=4;overflow=hidden;rotatable=0;points=[[0,0.5],[1,0.5]];portConstraint=eastwest;whiteSpace=wrap;html=1;fillColor=light-dark(#FFFF00,#FFFF33);fontColor=#000000;strokeColor=#000000;" parent="CeRw56cfuyo3TGLGe_MA-101" vertex="1">
          <mxGeometry y="112" width="1170" height="26" as="geometry" />
        </mxCell>
        <mxCell id="CeRw56cfuyo3TGLGe_MA-134" value="+ editProfile(email: String, name: String, password: String, bio: String, preferences: String[], profilePictureUrl: String): void" style="text;align=left;verticalAlign=top;spacingLeft=4;spacingRight=4;overflow=hidden;rotatable=0;points=[[0,0.5],[1,0.5]];portConstraint=eastwest;whiteSpace=wrap;html=1;fillColor=#FFFF00;strokeColor=#000000;fontColor=#000000;" parent="CeRw56cfuyo3TGLGe_MA-101" vertex="1">
          <mxGeometry y="138" width="1170" height="26" as="geometry" />
        </mxCell>
        <mxCell id="TtvQXbVJvoLlcyAV71Qk-164" value="+ editVenueProfile(email: String, name: String, password: String, bio: String, profilePictureUrl: String, venueLocation: String, venueTaxIdentificationNumHashed: int, venueBusinessRegistrationNumHashed: int): void" style="text;align=left;verticalAlign=top;spacingLeft=4;spacingRight=4;overflow=hidden;rotatable=0;points=[[0,0.5],[1,0.5]];portConstraint=eastwest;whiteSpace=wrap;html=1;fillColor=#FFFF00;strokeColor=#000000;fontColor=#000000;" parent="CeRw56cfuyo3TGLGe_MA-101" vertex="1">
          <mxGeometry y="164" width="1170" height="26" as="geometry" />
        </mxCell>
        <mxCell id="8rEBr2aL7rWZqsQNYB0q-49" value="+ deleteProfile(accountId: int): void" style="text;align=left;verticalAlign=top;spacingLeft=4;spacingRight=4;overflow=hidden;rotatable=0;points=[[0,0.5],[1,0.5]];portConstraint=eastwest;whiteSpace=wrap;html=1;fillColor=#FFFF00;strokeColor=#000000;fontColor=#000000;" parent="CeRw56cfuyo3TGLGe_MA-101" vertex="1">
          <mxGeometry y="190" width="1170" height="26" as="geometry" />
        </mxCell>
        <mxCell id="r6K4Pp1mrl-VjJb1cEgy-38" value="+&amp;nbsp;followUser(accountId: int, followedUserId: int): void" style="text;align=left;verticalAlign=top;spacingLeft=4;spacingRight=4;overflow=hidden;rotatable=0;points=[[0,0.5],[1,0.5]];portConstraint=eastwest;whiteSpace=wrap;html=1;fillColor=light-dark(#FFFF00,#FFFF33);fontColor=#000000;strokeColor=#000000;" parent="CeRw56cfuyo3TGLGe_MA-101" vertex="1">
          <mxGeometry y="216" width="1170" height="26" as="geometry" />
        </mxCell>
        <mxCell id="r6K4Pp1mrl-VjJb1cEgy-37" value="+&amp;nbsp;followVenue(accountId: int, followedVenueId: int): void" style="text;align=left;verticalAlign=top;spacingLeft=4;spacingRight=4;overflow=hidden;rotatable=0;points=[[0,0.5],[1,0.5]];portConstraint=eastwest;whiteSpace=wrap;html=1;fillColor=light-dark(#FFFF00,#FFFF33);fontColor=#000000;strokeColor=#000000;" parent="CeRw56cfuyo3TGLGe_MA-101" vertex="1">
          <mxGeometry y="242" width="1170" height="26" as="geometry" />
        </mxCell>
        <mxCell id="r6K4Pp1mrl-VjJb1cEgy-40" value="+ requestVerification(accountId: int): void" style="text;align=left;verticalAlign=top;spacingLeft=4;spacingRight=4;overflow=hidden;rotatable=0;points=[[0,0.5],[1,0.5]];portConstraint=eastwest;whiteSpace=wrap;html=1;fillColor=light-dark(#FFFF00,#FFFF33);fontColor=#000000;strokeColor=#000000;" parent="CeRw56cfuyo3TGLGe_MA-101" vertex="1">
          <mxGeometry y="268" width="1170" height="26" as="geometry" />
        </mxCell>
        <mxCell id="8rEBr2aL7rWZqsQNYB0q-44" value="+ getAccount(accountId: int): AccountEntity" style="text;align=left;verticalAlign=top;spacingLeft=4;spacingRight=4;overflow=hidden;rotatable=0;points=[[0,0.5],[1,0.5]];portConstraint=eastwest;whiteSpace=wrap;html=1;fillColor=light-dark(#FFFF00,#FFFF33);fontColor=#000000;strokeColor=#000000;" parent="CeRw56cfuyo3TGLGe_MA-101" vertex="1">
          <mxGeometry y="294" width="1170" height="26" as="geometry" />
        </mxCell>
        <mxCell id="8rEBr2aL7rWZqsQNYB0q-45" value="+ getVenue(venueId: int): VenueEntity" style="text;align=left;verticalAlign=top;spacingLeft=4;spacingRight=4;overflow=hidden;rotatable=0;points=[[0,0.5],[1,0.5]];portConstraint=eastwest;whiteSpace=wrap;html=1;fillColor=light-dark(#FFFF00,#FFFF33);fontColor=#000000;strokeColor=#000000;" parent="CeRw56cfuyo3TGLGe_MA-101" vertex="1">
          <mxGeometry y="320" width="1170" height="26" as="geometry" />
        </mxCell>
        <mxCell id="CeRw56cfuyo3TGLGe_MA-138" value="AccountEntity" style="swimlane;fontStyle=1;align=center;verticalAlign=top;childLayout=stackLayout;horizontal=1;startSize=26;horizontalStack=0;resizeParent=1;resizeParentMax=0;resizeLast=0;collapsible=1;marginBottom=0;whiteSpace=wrap;html=1;fillColor=#00FF51;strokeColor=#000000;fontColor=#000000;" parent="1" vertex="1">
          <mxGeometry x="-3291" y="20" width="360" height="788" as="geometry">
            <mxRectangle x="-2872.5" y="62.95" width="150" height="26" as="alternateBounds" />
          </mxGeometry>
        </mxCell>
        <mxCell id="CeRw56cfuyo3TGLGe_MA-144" value="- id: int" style="text;strokeColor=#000000;fillColor=#00FF51;align=left;verticalAlign=top;spacingLeft=4;spacingRight=4;overflow=hidden;rotatable=0;points=[[0,0.5],[1,0.5]];portConstraint=eastwest;whiteSpace=wrap;html=1;fontColor=#000000;" parent="CeRw56cfuyo3TGLGe_MA-138" vertex="1">
          <mxGeometry y="26" width="360" height="26" as="geometry" />
        </mxCell>
        <mxCell id="CeRw56cfuyo3TGLGe_MA-142" value="- email: String&lt;span style=&quot;white-space: pre;&quot;&gt;&#x9;&lt;/span&gt;" style="text;strokeColor=#000000;fillColor=#00FF51;align=left;verticalAlign=top;spacingLeft=4;spacingRight=4;overflow=hidden;rotatable=0;points=[[0,0.5],[1,0.5]];portConstraint=eastwest;whiteSpace=wrap;html=1;fontColor=#000000;" parent="CeRw56cfuyo3TGLGe_MA-138" vertex="1">
          <mxGeometry y="52" width="360" height="26" as="geometry" />
        </mxCell>
        <mxCell id="CeRw56cfuyo3TGLGe_MA-147" value="- name: String" style="text;strokeColor=#000000;fillColor=#00FF51;align=left;verticalAlign=top;spacingLeft=4;spacingRight=4;overflow=hidden;rotatable=0;points=[[0,0.5],[1,0.5]];portConstraint=eastwest;whiteSpace=wrap;html=1;fontColor=#000000;" parent="CeRw56cfuyo3TGLGe_MA-138" vertex="1">
          <mxGeometry y="78" width="360" height="26" as="geometry" />
        </mxCell>
        <mxCell id="CeRw56cfuyo3TGLGe_MA-143" value="- password: String" style="text;strokeColor=#000000;fillColor=#00FF51;align=left;verticalAlign=top;spacingLeft=4;spacingRight=4;overflow=hidden;rotatable=0;points=[[0,0.5],[1,0.5]];portConstraint=eastwest;whiteSpace=wrap;html=1;fontColor=#000000;" parent="CeRw56cfuyo3TGLGe_MA-138" vertex="1">
          <mxGeometry y="104" width="360" height="26" as="geometry" />
        </mxCell>
        <mxCell id="CeRw56cfuyo3TGLGe_MA-146" value="- profilePictureUrl?: String" style="text;strokeColor=#000000;fillColor=#00FF51;align=left;verticalAlign=top;spacingLeft=4;spacingRight=4;overflow=hidden;rotatable=0;points=[[0,0.5],[1,0.5]];portConstraint=eastwest;whiteSpace=wrap;html=1;fontColor=#000000;" parent="CeRw56cfuyo3TGLGe_MA-138" vertex="1">
          <mxGeometry y="130" width="360" height="26" as="geometry" />
        </mxCell>
        <mxCell id="CeRw56cfuyo3TGLGe_MA-145" value="- bio?: String" style="text;strokeColor=#000000;fillColor=#00FF51;align=left;verticalAlign=top;spacingLeft=4;spacingRight=4;overflow=hidden;rotatable=0;points=[[0,0.5],[1,0.5]];portConstraint=eastwest;whiteSpace=wrap;html=1;fontColor=#000000;" parent="CeRw56cfuyo3TGLGe_MA-138" vertex="1">
          <mxGeometry y="156" width="360" height="26" as="geometry" />
        </mxCell>
        <mxCell id="6jnvJd_KVT4TXYjh_vCa-99" value="- preferences: String[]" style="text;strokeColor=#000000;fillColor=#00FF51;align=left;verticalAlign=top;spacingLeft=4;spacingRight=4;overflow=hidden;rotatable=0;points=[[0,0.5],[1,0.5]];portConstraint=eastwest;whiteSpace=wrap;html=1;fontColor=#000000;" parent="CeRw56cfuyo3TGLGe_MA-138" vertex="1">
          <mxGeometry y="182" width="360" height="26" as="geometry" />
        </mxCell>
        <mxCell id="H2AgAY1qbFDTJF13Do6O-38" value="- isVerified: bool" style="text;strokeColor=#000000;fillColor=#00FF51;align=left;verticalAlign=top;spacingLeft=4;spacingRight=4;overflow=hidden;rotatable=0;points=[[0,0.5],[1,0.5]];portConstraint=eastwest;whiteSpace=wrap;html=1;fontColor=#000000;" parent="CeRw56cfuyo3TGLGe_MA-138" vertex="1">
          <mxGeometry y="208" width="360" height="26" as="geometry" />
        </mxCell>
        <mxCell id="XeSyGgixjgFaF0cVz5fR-41" value="- likedEventsIds: int[]" style="text;strokeColor=#000000;fillColor=#00FF51;align=left;verticalAlign=top;spacingLeft=4;spacingRight=4;overflow=hidden;rotatable=0;points=[[0,0.5],[1,0.5]];portConstraint=eastwest;whiteSpace=wrap;html=1;fontColor=#000000;" parent="CeRw56cfuyo3TGLGe_MA-138" vertex="1">
          <mxGeometry y="234" width="360" height="26" as="geometry" />
        </mxCell>
        <mxCell id="XeSyGgixjgFaF0cVz5fR-40" value="- followedAccountsIds: int[]" style="text;strokeColor=#000000;fillColor=#00FF51;align=left;verticalAlign=top;spacingLeft=4;spacingRight=4;overflow=hidden;rotatable=0;points=[[0,0.5],[1,0.5]];portConstraint=eastwest;whiteSpace=wrap;html=1;fontColor=#000000;" parent="CeRw56cfuyo3TGLGe_MA-138" vertex="1">
          <mxGeometry y="260" width="360" height="26" as="geometry" />
        </mxCell>
        <mxCell id="ba5yC0drVQ4_OKnRPl2F-4" style="line;strokeWidth=1;fillColor=#00FF51;align=left;verticalAlign=middle;spacingTop=-1;spacingLeft=3;spacingRight=3;rotatable=0;labelPosition=right;points=[];portConstraint=eastwest;strokeColor=#000000;fontColor=#000000;" parent="CeRw56cfuyo3TGLGe_MA-138" vertex="1">
          <mxGeometry y="286" width="360" height="8" as="geometry" />
        </mxCell>
        <mxCell id="TtvQXbVJvoLlcyAV71Qk-148" value="&lt;div&gt;+ AccountEntity(id: int, email: String, password: String, name: String, profilePictureUrl: String, preferences: String[], bio: String, isVerified: bool,&amp;nbsp;&lt;span style=&quot;background-color: transparent;&quot;&gt;likedEventsIds: int[],&amp;nbsp;&lt;/span&gt;&lt;span style=&quot;background-color: transparent;&quot;&gt;followedAccountsIds: int[]&lt;/span&gt;&lt;span style=&quot;background-color: transparent;&quot;&gt;)&lt;/span&gt;&lt;/div&gt;&lt;div&gt;&lt;br&gt;&lt;/div&gt;" style="text;strokeColor=#000000;fillColor=#00FF51;align=left;verticalAlign=top;spacingLeft=4;spacingRight=4;overflow=hidden;rotatable=0;points=[[0,0.5],[1,0.5]];portConstraint=eastwest;whiteSpace=wrap;html=1;fontColor=#000000;" parent="CeRw56cfuyo3TGLGe_MA-138" vertex="1">
          <mxGeometry y="294" width="360" height="26" as="geometry" />
        </mxCell>
        <mxCell id="TtvQXbVJvoLlcyAV71Qk-79" value="+setEmail(email: String):void" style="text;strokeColor=#000000;fillColor=#00FF51;align=left;verticalAlign=top;spacingLeft=4;spacingRight=4;overflow=hidden;rotatable=0;points=[[0,0.5],[1,0.5]];portConstraint=eastwest;whiteSpace=wrap;html=1;fontColor=#000000;" parent="CeRw56cfuyo3TGLGe_MA-138" vertex="1">
          <mxGeometry y="320" width="360" height="26" as="geometry" />
        </mxCell>
        <mxCell id="ba5yC0drVQ4_OKnRPl2F-18" value="+getEmail():String" style="text;strokeColor=#000000;fillColor=#00FF51;align=left;verticalAlign=top;spacingLeft=4;spacingRight=4;overflow=hidden;rotatable=0;points=[[0,0.5],[1,0.5]];portConstraint=eastwest;whiteSpace=wrap;html=1;fontColor=#000000;" parent="CeRw56cfuyo3TGLGe_MA-138" vertex="1">
          <mxGeometry y="346" width="360" height="26" as="geometry" />
        </mxCell>
        <mxCell id="TtvQXbVJvoLlcyAV71Qk-80" value="+setId(id: int): void" style="text;strokeColor=#000000;fillColor=#00FF51;align=left;verticalAlign=top;spacingLeft=4;spacingRight=4;overflow=hidden;rotatable=0;points=[[0,0.5],[1,0.5]];portConstraint=eastwest;whiteSpace=wrap;html=1;fontColor=#000000;" parent="CeRw56cfuyo3TGLGe_MA-138" vertex="1">
          <mxGeometry y="372" width="360" height="26" as="geometry" />
        </mxCell>
        <mxCell id="ba5yC0drVQ4_OKnRPl2F-20" value="+getId(): int" style="text;strokeColor=#000000;fillColor=#00FF51;align=left;verticalAlign=top;spacingLeft=4;spacingRight=4;overflow=hidden;rotatable=0;points=[[0,0.5],[1,0.5]];portConstraint=eastwest;whiteSpace=wrap;html=1;fontColor=#000000;" parent="CeRw56cfuyo3TGLGe_MA-138" vertex="1">
          <mxGeometry y="398" width="360" height="26" as="geometry" />
        </mxCell>
        <mxCell id="TtvQXbVJvoLlcyAV71Qk-81" value="+setName(name: string): void" style="text;strokeColor=#000000;fillColor=#00FF51;align=left;verticalAlign=top;spacingLeft=4;spacingRight=4;overflow=hidden;rotatable=0;points=[[0,0.5],[1,0.5]];portConstraint=eastwest;whiteSpace=wrap;html=1;fontColor=#000000;" parent="CeRw56cfuyo3TGLGe_MA-138" vertex="1">
          <mxGeometry y="424" width="360" height="26" as="geometry" />
        </mxCell>
        <mxCell id="ba5yC0drVQ4_OKnRPl2F-21" value="+getName():String" style="text;strokeColor=#000000;fillColor=#00FF51;align=left;verticalAlign=top;spacingLeft=4;spacingRight=4;overflow=hidden;rotatable=0;points=[[0,0.5],[1,0.5]];portConstraint=eastwest;whiteSpace=wrap;html=1;fontColor=#000000;" parent="CeRw56cfuyo3TGLGe_MA-138" vertex="1">
          <mxGeometry y="450" width="360" height="26" as="geometry" />
        </mxCell>
        <mxCell id="TtvQXbVJvoLlcyAV71Qk-82" value="+setProfilePictureUrl(pPu: String): void" style="text;strokeColor=#000000;fillColor=#00FF51;align=left;verticalAlign=top;spacingLeft=4;spacingRight=4;overflow=hidden;rotatable=0;points=[[0,0.5],[1,0.5]];portConstraint=eastwest;whiteSpace=wrap;html=1;fontColor=#000000;" parent="CeRw56cfuyo3TGLGe_MA-138" vertex="1">
          <mxGeometry y="476" width="360" height="26" as="geometry" />
        </mxCell>
        <mxCell id="ba5yC0drVQ4_OKnRPl2F-22" value="+getProfilePictureUrl(): String" style="text;strokeColor=#000000;fillColor=#00FF51;align=left;verticalAlign=top;spacingLeft=4;spacingRight=4;overflow=hidden;rotatable=0;points=[[0,0.5],[1,0.5]];portConstraint=eastwest;whiteSpace=wrap;html=1;fontColor=#000000;" parent="CeRw56cfuyo3TGLGe_MA-138" vertex="1">
          <mxGeometry y="502" width="360" height="26" as="geometry" />
        </mxCell>
        <mxCell id="TtvQXbVJvoLlcyAV71Qk-83" value="+setPreferences(Preferences: String[]): void" style="text;strokeColor=#000000;fillColor=#00FF51;align=left;verticalAlign=top;spacingLeft=4;spacingRight=4;overflow=hidden;rotatable=0;points=[[0,0.5],[1,0.5]];portConstraint=eastwest;whiteSpace=wrap;html=1;fontColor=#000000;" parent="CeRw56cfuyo3TGLGe_MA-138" vertex="1">
          <mxGeometry y="528" width="360" height="26" as="geometry" />
        </mxCell>
        <mxCell id="TtvQXbVJvoLlcyAV71Qk-78" value="+getPreferences(): String[]" style="text;strokeColor=#000000;fillColor=#00FF51;align=left;verticalAlign=top;spacingLeft=4;spacingRight=4;overflow=hidden;rotatable=0;points=[[0,0.5],[1,0.5]];portConstraint=eastwest;whiteSpace=wrap;html=1;fontColor=#000000;" parent="CeRw56cfuyo3TGLGe_MA-138" vertex="1">
          <mxGeometry y="554" width="360" height="26" as="geometry" />
        </mxCell>
        <mxCell id="TtvQXbVJvoLlcyAV71Qk-86" value="+ setBio(bio: String): void" style="text;strokeColor=#000000;fillColor=#00FF51;align=left;verticalAlign=top;spacingLeft=4;spacingRight=4;overflow=hidden;rotatable=0;points=[[0,0.5],[1,0.5]];portConstraint=eastwest;whiteSpace=wrap;html=1;fontColor=#000000;" parent="CeRw56cfuyo3TGLGe_MA-138" vertex="1">
          <mxGeometry y="580" width="360" height="26" as="geometry" />
        </mxCell>
        <mxCell id="TtvQXbVJvoLlcyAV71Qk-85" value="+ getBio(): String" style="text;strokeColor=#000000;fillColor=#00FF51;align=left;verticalAlign=top;spacingLeft=4;spacingRight=4;overflow=hidden;rotatable=0;points=[[0,0.5],[1,0.5]];portConstraint=eastwest;whiteSpace=wrap;html=1;fontColor=#000000;" parent="CeRw56cfuyo3TGLGe_MA-138" vertex="1">
          <mxGeometry y="606" width="360" height="26" as="geometry" />
        </mxCell>
        <mxCell id="TtvQXbVJvoLlcyAV71Qk-84" value="+ setVerifiedStatus(isVerified: bool): void" style="text;strokeColor=#000000;fillColor=#00FF51;align=left;verticalAlign=top;spacingLeft=4;spacingRight=4;overflow=hidden;rotatable=0;points=[[0,0.5],[1,0.5]];portConstraint=eastwest;whiteSpace=wrap;html=1;fontColor=#000000;" parent="CeRw56cfuyo3TGLGe_MA-138" vertex="1">
          <mxGeometry y="632" width="360" height="26" as="geometry" />
        </mxCell>
        <mxCell id="TtvQXbVJvoLlcyAV71Qk-87" value="+ isVerified(): bool" style="text;strokeColor=#000000;fillColor=#00FF51;align=left;verticalAlign=top;spacingLeft=4;spacingRight=4;overflow=hidden;rotatable=0;points=[[0,0.5],[1,0.5]];portConstraint=eastwest;whiteSpace=wrap;html=1;fontColor=#000000;" parent="CeRw56cfuyo3TGLGe_MA-138" vertex="1">
          <mxGeometry y="658" width="360" height="26" as="geometry" />
        </mxCell>
        <mxCell id="XeSyGgixjgFaF0cVz5fR-45" value="+ getLikedEventsIds(): int[]" style="text;strokeColor=#000000;fillColor=#00FF51;align=left;verticalAlign=top;spacingLeft=4;spacingRight=4;overflow=hidden;rotatable=0;points=[[0,0.5],[1,0.5]];portConstraint=eastwest;whiteSpace=wrap;html=1;fontColor=#000000;" parent="CeRw56cfuyo3TGLGe_MA-138" vertex="1">
          <mxGeometry y="684" width="360" height="26" as="geometry" />
        </mxCell>
        <mxCell id="XeSyGgixjgFaF0cVz5fR-44" value="+ setLikedEventsIds(likedEventsIds: int[]): void" style="text;strokeColor=#000000;fillColor=#00FF51;align=left;verticalAlign=top;spacingLeft=4;spacingRight=4;overflow=hidden;rotatable=0;points=[[0,0.5],[1,0.5]];portConstraint=eastwest;whiteSpace=wrap;html=1;fontColor=#000000;" parent="CeRw56cfuyo3TGLGe_MA-138" vertex="1">
          <mxGeometry y="710" width="360" height="26" as="geometry" />
        </mxCell>
        <mxCell id="XeSyGgixjgFaF0cVz5fR-46" value="+ getFollowedAccountsIds(): int[]" style="text;strokeColor=#000000;fillColor=#00FF51;align=left;verticalAlign=top;spacingLeft=4;spacingRight=4;overflow=hidden;rotatable=0;points=[[0,0.5],[1,0.5]];portConstraint=eastwest;whiteSpace=wrap;html=1;fontColor=#000000;" parent="CeRw56cfuyo3TGLGe_MA-138" vertex="1">
          <mxGeometry y="736" width="360" height="26" as="geometry" />
        </mxCell>
        <mxCell id="XeSyGgixjgFaF0cVz5fR-47" value="+ setFollowedAccountsIds(followedAccountsIds: int[]): void" style="text;strokeColor=#000000;fillColor=#00FF51;align=left;verticalAlign=top;spacingLeft=4;spacingRight=4;overflow=hidden;rotatable=0;points=[[0,0.5],[1,0.5]];portConstraint=eastwest;whiteSpace=wrap;html=1;fontColor=#000000;" parent="CeRw56cfuyo3TGLGe_MA-138" vertex="1">
          <mxGeometry y="762" width="360" height="26" as="geometry" />
        </mxCell>
        <mxCell id="PC12vPVq4i0meeTjriCz-38" style="edgeStyle=orthogonalEdgeStyle;rounded=0;orthogonalLoop=1;jettySize=auto;html=1;exitX=0.5;exitY=0;exitDx=0;exitDy=0;entryX=0.5;entryY=1;entryDx=0;entryDy=0;endArrow=none;startFill=0;" parent="1" source="6jnvJd_KVT4TXYjh_vCa-1" target="CeRw56cfuyo3TGLGe_MA-101" edge="1">
          <mxGeometry relative="1" as="geometry">
            <Array as="points">
              <mxPoint x="-2005" y="475" />
              <mxPoint x="-2092" y="475" />
            </Array>
          </mxGeometry>
        </mxCell>
        <mxCell id="6jnvJd_KVT4TXYjh_vCa-1" value="SignInGUI&lt;div&gt;&lt;br&gt;&lt;/div&gt;" style="swimlane;fontStyle=1;align=center;verticalAlign=top;childLayout=stackLayout;horizontal=1;startSize=26;horizontalStack=0;resizeParent=1;resizeParentMax=0;resizeLast=0;collapsible=1;marginBottom=0;whiteSpace=wrap;html=1;fillColor=#5500FF;fontColor=#FFFFFF;strokeColor=#000000;" parent="1" vertex="1">
          <mxGeometry x="-2125" y="529" width="240" height="268" as="geometry">
            <mxRectangle x="-2694.5" y="16.62" width="170" height="26" as="alternateBounds" />
          </mxGeometry>
        </mxCell>
        <mxCell id="6jnvJd_KVT4TXYjh_vCa-2" value="-btnSignIn: Button" style="text;align=left;verticalAlign=top;spacingLeft=4;spacingRight=4;overflow=hidden;rotatable=0;points=[[0,0.5],[1,0.5]];portConstraint=eastwest;whiteSpace=wrap;html=1;strokeColor=#000000;fillColor=#5500FF;fontColor=#FFFFFF;" parent="6jnvJd_KVT4TXYjh_vCa-1" vertex="1">
          <mxGeometry y="26" width="240" height="26" as="geometry" />
        </mxCell>
        <mxCell id="6jnvJd_KVT4TXYjh_vCa-6" value="-btnHome: Button" style="text;strokeColor=#000000;fillColor=#5500FF;align=left;verticalAlign=top;spacingLeft=4;spacingRight=4;overflow=hidden;rotatable=0;points=[[0,0.5],[1,0.5]];portConstraint=eastwest;whiteSpace=wrap;html=1;fontColor=#FFFFFF;" parent="6jnvJd_KVT4TXYjh_vCa-1" vertex="1">
          <mxGeometry y="52" width="240" height="26" as="geometry" />
        </mxCell>
        <mxCell id="6jnvJd_KVT4TXYjh_vCa-5" value="-btnSearch: Button" style="text;strokeColor=#000000;fillColor=#5500FF;align=left;verticalAlign=top;spacingLeft=4;spacingRight=4;overflow=hidden;rotatable=0;points=[[0,0.5],[1,0.5]];portConstraint=eastwest;whiteSpace=wrap;html=1;fontColor=#FFFFFF;" parent="6jnvJd_KVT4TXYjh_vCa-1" vertex="1">
          <mxGeometry y="78" width="240" height="26" as="geometry" />
        </mxCell>
        <mxCell id="6jnvJd_KVT4TXYjh_vCa-7" value="-btnProfile: Button" style="text;strokeColor=#000000;fillColor=#5500FF;align=left;verticalAlign=top;spacingLeft=4;spacingRight=4;overflow=hidden;rotatable=0;points=[[0,0.5],[1,0.5]];portConstraint=eastwest;whiteSpace=wrap;html=1;fontColor=#FFFFFF;" parent="6jnvJd_KVT4TXYjh_vCa-1" vertex="1">
          <mxGeometry y="104" width="240" height="26" as="geometry" />
        </mxCell>
        <mxCell id="6jnvJd_KVT4TXYjh_vCa-3" value="" style="line;strokeWidth=1;fillColor=#5500FF;align=left;verticalAlign=middle;spacingTop=-1;spacingLeft=3;spacingRight=3;rotatable=0;labelPosition=right;points=[];portConstraint=eastwest;strokeColor=#000000;fontColor=#FFFFFF;" parent="6jnvJd_KVT4TXYjh_vCa-1" vertex="1">
          <mxGeometry y="130" width="240" height="8" as="geometry" />
        </mxCell>
        <mxCell id="XeSyGgixjgFaF0cVz5fR-38" value="+ SignInGUI()" style="text;strokeColor=#000000;fillColor=#5500FF;align=left;verticalAlign=top;spacingLeft=4;spacingRight=4;overflow=hidden;rotatable=0;points=[[0,0.5],[1,0.5]];portConstraint=eastwest;whiteSpace=wrap;html=1;fontColor=#FFFFFF;" parent="6jnvJd_KVT4TXYjh_vCa-1" vertex="1">
          <mxGeometry y="138" width="240" height="26" as="geometry" />
        </mxCell>
        <mxCell id="jPaITzh1_wMs5D8MoFJ9-50" value="+ btnHomePress(): void" style="text;strokeColor=#000000;fillColor=#5500FF;align=left;verticalAlign=top;spacingLeft=4;spacingRight=4;overflow=hidden;rotatable=0;points=[[0,0.5],[1,0.5]];portConstraint=eastwest;whiteSpace=wrap;html=1;fontColor=#FFFFFF;" parent="6jnvJd_KVT4TXYjh_vCa-1" vertex="1">
          <mxGeometry y="164" width="240" height="26" as="geometry" />
        </mxCell>
        <mxCell id="jPaITzh1_wMs5D8MoFJ9-49" value="+ btnSearchPress(): void" style="text;strokeColor=#000000;fillColor=#5500FF;align=left;verticalAlign=top;spacingLeft=4;spacingRight=4;overflow=hidden;rotatable=0;points=[[0,0.5],[1,0.5]];portConstraint=eastwest;whiteSpace=wrap;html=1;fontColor=#FFFFFF;" parent="6jnvJd_KVT4TXYjh_vCa-1" vertex="1">
          <mxGeometry y="190" width="240" height="26" as="geometry" />
        </mxCell>
        <mxCell id="jPaITzh1_wMs5D8MoFJ9-48" value="+ btnProfilePress(): void" style="text;strokeColor=#000000;fillColor=#5500FF;align=left;verticalAlign=top;spacingLeft=4;spacingRight=4;overflow=hidden;rotatable=0;points=[[0,0.5],[1,0.5]];portConstraint=eastwest;whiteSpace=wrap;html=1;fontColor=#FFFFFF;" parent="6jnvJd_KVT4TXYjh_vCa-1" vertex="1">
          <mxGeometry y="216" width="240" height="26" as="geometry" />
        </mxCell>
        <mxCell id="6jnvJd_KVT4TXYjh_vCa-4" value="+ btnSignInPress(): void" style="text;strokeColor=#000000;fillColor=#5500FF;align=left;verticalAlign=top;spacingLeft=4;spacingRight=4;overflow=hidden;rotatable=0;points=[[0,0.5],[1,0.5]];portConstraint=eastwest;whiteSpace=wrap;html=1;fontColor=#FFFFFF;" parent="6jnvJd_KVT4TXYjh_vCa-1" vertex="1">
          <mxGeometry y="242" width="240" height="26" as="geometry" />
        </mxCell>
        <mxCell id="6jnvJd_KVT4TXYjh_vCa-8" value="ProfileGUI" style="swimlane;fontStyle=1;align=center;verticalAlign=top;childLayout=stackLayout;horizontal=1;startSize=26;horizontalStack=0;resizeParent=1;resizeParentMax=0;resizeLast=0;collapsible=1;marginBottom=0;whiteSpace=wrap;html=1;strokeColor=#000000;fillColor=#5500FF;fontColor=#FFFFFF;" parent="1" vertex="1">
          <mxGeometry x="-1359" y="-154" width="350" height="736" as="geometry">
            <mxRectangle x="-2694.5" y="54.95" width="170" height="26" as="alternateBounds" />
          </mxGeometry>
        </mxCell>
        <mxCell id="6jnvJd_KVT4TXYjh_vCa-9" value="-fldBio: Field" style="text;strokeColor=#000000;fillColor=#5500FF;align=left;verticalAlign=top;spacingLeft=4;spacingRight=4;overflow=hidden;rotatable=0;points=[[0,0.5],[1,0.5]];portConstraint=eastwest;whiteSpace=wrap;html=1;fontColor=#FFFFFF;" parent="6jnvJd_KVT4TXYjh_vCa-8" vertex="1">
          <mxGeometry y="26" width="350" height="26" as="geometry" />
        </mxCell>
        <mxCell id="6jnvJd_KVT4TXYjh_vCa-14" value="-iconProfileImage: Image" style="text;strokeColor=#000000;fillColor=#5500FF;align=left;verticalAlign=top;spacingLeft=4;spacingRight=4;overflow=hidden;rotatable=0;points=[[0,0.5],[1,0.5]];portConstraint=eastwest;whiteSpace=wrap;html=1;fontColor=#FFFFFF;" parent="6jnvJd_KVT4TXYjh_vCa-8" vertex="1">
          <mxGeometry y="52" width="350" height="26" as="geometry" />
        </mxCell>
        <mxCell id="6jnvJd_KVT4TXYjh_vCa-24" value="-iconVerified?: icon" style="text;strokeColor=#000000;fillColor=#5500FF;align=left;verticalAlign=top;spacingLeft=4;spacingRight=4;overflow=hidden;rotatable=0;points=[[0,0.5],[1,0.5]];portConstraint=eastwest;whiteSpace=wrap;html=1;fontColor=#FFFFFF;" parent="6jnvJd_KVT4TXYjh_vCa-8" vertex="1">
          <mxGeometry y="78" width="350" height="26" as="geometry" />
        </mxCell>
        <mxCell id="6jnvJd_KVT4TXYjh_vCa-13" value="-accountFollowers: integer" style="text;strokeColor=#000000;fillColor=#5500FF;align=left;verticalAlign=top;spacingLeft=4;spacingRight=4;overflow=hidden;rotatable=0;points=[[0,0.5],[1,0.5]];portConstraint=eastwest;whiteSpace=wrap;html=1;fontColor=#FFFFFF;" parent="6jnvJd_KVT4TXYjh_vCa-8" vertex="1">
          <mxGeometry y="104" width="350" height="26" as="geometry" />
        </mxCell>
        <mxCell id="6jnvJd_KVT4TXYjh_vCa-12" value="-accountFollowing: integer" style="text;strokeColor=#000000;fillColor=#5500FF;align=left;verticalAlign=top;spacingLeft=4;spacingRight=4;overflow=hidden;rotatable=0;points=[[0,0.5],[1,0.5]];portConstraint=eastwest;whiteSpace=wrap;html=1;fontColor=#FFFFFF;" parent="6jnvJd_KVT4TXYjh_vCa-8" vertex="1">
          <mxGeometry y="130" width="350" height="26" as="geometry" />
        </mxCell>
        <mxCell id="6jnvJd_KVT4TXYjh_vCa-27" value="-postBox: Image[]" style="text;strokeColor=#000000;fillColor=#5500FF;align=left;verticalAlign=top;spacingLeft=4;spacingRight=4;overflow=hidden;rotatable=0;points=[[0,0.5],[1,0.5]];portConstraint=eastwest;whiteSpace=wrap;html=1;fontColor=#FFFFFF;" parent="6jnvJd_KVT4TXYjh_vCa-8" vertex="1">
          <mxGeometry y="156" width="350" height="26" as="geometry" />
        </mxCell>
        <mxCell id="6jnvJd_KVT4TXYjh_vCa-25" value="-btnEditProfile:Button" style="text;strokeColor=#000000;fillColor=#5500FF;align=left;verticalAlign=top;spacingLeft=4;spacingRight=4;overflow=hidden;rotatable=0;points=[[0,0.5],[1,0.5]];portConstraint=eastwest;whiteSpace=wrap;html=1;fontColor=#FFFFFF;" parent="6jnvJd_KVT4TXYjh_vCa-8" vertex="1">
          <mxGeometry y="182" width="350" height="26" as="geometry" />
        </mxCell>
        <mxCell id="6jnvJd_KVT4TXYjh_vCa-16" value="-btnLikedEvents: Button" style="text;strokeColor=#000000;fillColor=#5500FF;align=left;verticalAlign=top;spacingLeft=4;spacingRight=4;overflow=hidden;rotatable=0;points=[[0,0.5],[1,0.5]];portConstraint=eastwest;whiteSpace=wrap;html=1;fontColor=#FFFFFF;" parent="6jnvJd_KVT4TXYjh_vCa-8" vertex="1">
          <mxGeometry y="208" width="350" height="26" as="geometry" />
        </mxCell>
        <mxCell id="6jnvJd_KVT4TXYjh_vCa-15" value="-btnReviewedEvents: Button" style="text;strokeColor=#000000;fillColor=#5500FF;align=left;verticalAlign=top;spacingLeft=4;spacingRight=4;overflow=hidden;rotatable=0;points=[[0,0.5],[1,0.5]];portConstraint=eastwest;whiteSpace=wrap;html=1;fontColor=#FFFFFF;" parent="6jnvJd_KVT4TXYjh_vCa-8" vertex="1">
          <mxGeometry y="234" width="350" height="26" as="geometry" />
        </mxCell>
        <mxCell id="6jnvJd_KVT4TXYjh_vCa-18" value="-btnEditPreferences: Button" style="text;strokeColor=#000000;fillColor=#5500FF;align=left;verticalAlign=top;spacingLeft=4;spacingRight=4;overflow=hidden;rotatable=0;points=[[0,0.5],[1,0.5]];portConstraint=eastwest;whiteSpace=wrap;html=1;fontColor=#FFFFFF;" parent="6jnvJd_KVT4TXYjh_vCa-8" vertex="1">
          <mxGeometry y="260" width="350" height="26" as="geometry" />
        </mxCell>
        <mxCell id="6jnvJd_KVT4TXYjh_vCa-114" value="-btnBecomeVerified: Button" style="text;strokeColor=#000000;fillColor=#5500FF;align=left;verticalAlign=top;spacingLeft=4;spacingRight=4;overflow=hidden;rotatable=0;points=[[0,0.5],[1,0.5]];portConstraint=eastwest;whiteSpace=wrap;html=1;fontColor=#FFFFFF;" parent="6jnvJd_KVT4TXYjh_vCa-8" vertex="1">
          <mxGeometry y="286" width="350" height="26" as="geometry" />
        </mxCell>
        <mxCell id="6jnvJd_KVT4TXYjh_vCa-113" value="-btnOrganisedEvents: Button" style="text;strokeColor=#000000;fillColor=#5500FF;align=left;verticalAlign=top;spacingLeft=4;spacingRight=4;overflow=hidden;rotatable=0;points=[[0,0.5],[1,0.5]];portConstraint=eastwest;whiteSpace=wrap;html=1;fontColor=#FFFFFF;" parent="6jnvJd_KVT4TXYjh_vCa-8" vertex="1">
          <mxGeometry y="312" width="350" height="26" as="geometry" />
        </mxCell>
        <mxCell id="6jnvJd_KVT4TXYjh_vCa-116" value="-btnCreateEvent: Button" style="text;strokeColor=#000000;fillColor=#5500FF;align=left;verticalAlign=top;spacingLeft=4;spacingRight=4;overflow=hidden;rotatable=0;points=[[0,0.5],[1,0.5]];portConstraint=eastwest;whiteSpace=wrap;html=1;fontColor=#FFFFFF;" parent="6jnvJd_KVT4TXYjh_vCa-8" vertex="1">
          <mxGeometry y="338" width="350" height="26" as="geometry" />
        </mxCell>
        <mxCell id="6jnvJd_KVT4TXYjh_vCa-17" value="-btnHome: Button" style="text;strokeColor=#000000;fillColor=#5500FF;align=left;verticalAlign=top;spacingLeft=4;spacingRight=4;overflow=hidden;rotatable=0;points=[[0,0.5],[1,0.5]];portConstraint=eastwest;whiteSpace=wrap;html=1;fontColor=#FFFFFF;" parent="6jnvJd_KVT4TXYjh_vCa-8" vertex="1">
          <mxGeometry y="364" width="350" height="26" as="geometry" />
        </mxCell>
        <mxCell id="6jnvJd_KVT4TXYjh_vCa-20" value="-btnSearch: Button" style="text;strokeColor=#000000;fillColor=#5500FF;align=left;verticalAlign=top;spacingLeft=4;spacingRight=4;overflow=hidden;rotatable=0;points=[[0,0.5],[1,0.5]];portConstraint=eastwest;whiteSpace=wrap;html=1;fontColor=#FFFFFF;" parent="6jnvJd_KVT4TXYjh_vCa-8" vertex="1">
          <mxGeometry y="390" width="350" height="26" as="geometry" />
        </mxCell>
        <mxCell id="6jnvJd_KVT4TXYjh_vCa-19" value="-btnProfile: Button" style="text;strokeColor=#000000;fillColor=#5500FF;align=left;verticalAlign=top;spacingLeft=4;spacingRight=4;overflow=hidden;rotatable=0;points=[[0,0.5],[1,0.5]];portConstraint=eastwest;whiteSpace=wrap;html=1;fontColor=#FFFFFF;" parent="6jnvJd_KVT4TXYjh_vCa-8" vertex="1">
          <mxGeometry y="416" width="350" height="26" as="geometry" />
        </mxCell>
        <mxCell id="6jnvJd_KVT4TXYjh_vCa-10" value="" style="line;strokeWidth=1;fillColor=#5500FF;align=left;verticalAlign=middle;spacingTop=-1;spacingLeft=3;spacingRight=3;rotatable=0;labelPosition=right;points=[];portConstraint=eastwest;strokeColor=#000000;fontColor=#FFFFFF;" parent="6jnvJd_KVT4TXYjh_vCa-8" vertex="1">
          <mxGeometry y="442" width="350" height="8" as="geometry" />
        </mxCell>
        <mxCell id="XeSyGgixjgFaF0cVz5fR-39" value="+ ProfileGUI(account: AccountEntity)" style="text;strokeColor=#000000;fillColor=#5500FF;align=left;verticalAlign=top;spacingLeft=4;spacingRight=4;overflow=hidden;rotatable=0;points=[[0,0.5],[1,0.5]];portConstraint=eastwest;whiteSpace=wrap;html=1;fontStyle=0;fontColor=#FFFFFF;" parent="6jnvJd_KVT4TXYjh_vCa-8" vertex="1">
          <mxGeometry y="450" width="350" height="26" as="geometry" />
        </mxCell>
        <mxCell id="jPaITzh1_wMs5D8MoFJ9-85" value="+ btnCreateEventPress(): void" style="text;strokeColor=#000000;fillColor=#5500FF;align=left;verticalAlign=top;spacingLeft=4;spacingRight=4;overflow=hidden;rotatable=0;points=[[0,0.5],[1,0.5]];portConstraint=eastwest;whiteSpace=wrap;html=1;fontStyle=0;fontColor=#FFFFFF;" parent="6jnvJd_KVT4TXYjh_vCa-8" vertex="1">
          <mxGeometry y="476" width="350" height="26" as="geometry" />
        </mxCell>
        <mxCell id="jPaITzh1_wMs5D8MoFJ9-86" value="+ btnOrganisedEventsPress(): void" style="text;strokeColor=#000000;fillColor=#5500FF;align=left;verticalAlign=top;spacingLeft=4;spacingRight=4;overflow=hidden;rotatable=0;points=[[0,0.5],[1,0.5]];portConstraint=eastwest;whiteSpace=wrap;html=1;fontStyle=0;fontColor=#FFFFFF;" parent="6jnvJd_KVT4TXYjh_vCa-8" vertex="1">
          <mxGeometry y="502" width="350" height="26" as="geometry" />
        </mxCell>
        <mxCell id="6jnvJd_KVT4TXYjh_vCa-28" value="&lt;div&gt;+ becomeVerifiedPressed(account: AccountEntity): void&lt;/div&gt;&lt;div&gt;&lt;br&gt;&lt;/div&gt;" style="text;strokeColor=#000000;fillColor=#5500FF;align=left;verticalAlign=top;spacingLeft=4;spacingRight=4;overflow=hidden;rotatable=0;points=[[0,0.5],[1,0.5]];portConstraint=eastwest;whiteSpace=wrap;html=1;fontColor=#FFFFFF;" parent="6jnvJd_KVT4TXYjh_vCa-8" vertex="1">
          <mxGeometry y="528" width="350" height="26" as="geometry" />
        </mxCell>
        <mxCell id="jPaITzh1_wMs5D8MoFJ9-87" value="+ btnEditPreferencesPress(): void" style="text;strokeColor=#000000;fillColor=#5500FF;align=left;verticalAlign=top;spacingLeft=4;spacingRight=4;overflow=hidden;rotatable=0;points=[[0,0.5],[1,0.5]];portConstraint=eastwest;whiteSpace=wrap;html=1;fontStyle=0;fontColor=#FFFFFF;" parent="6jnvJd_KVT4TXYjh_vCa-8" vertex="1">
          <mxGeometry y="554" width="350" height="26" as="geometry" />
        </mxCell>
        <mxCell id="jPaITzh1_wMs5D8MoFJ9-88" value="+ btnReviewedEventsPress(): void" style="text;strokeColor=#000000;fillColor=#5500FF;align=left;verticalAlign=top;spacingLeft=4;spacingRight=4;overflow=hidden;rotatable=0;points=[[0,0.5],[1,0.5]];portConstraint=eastwest;whiteSpace=wrap;html=1;fontStyle=0;fontColor=#FFFFFF;" parent="6jnvJd_KVT4TXYjh_vCa-8" vertex="1">
          <mxGeometry y="580" width="350" height="26" as="geometry" />
        </mxCell>
        <mxCell id="jPaITzh1_wMs5D8MoFJ9-89" value="+ btnLikedEventsPress(): void" style="text;strokeColor=#000000;fillColor=#5500FF;align=left;verticalAlign=top;spacingLeft=4;spacingRight=4;overflow=hidden;rotatable=0;points=[[0,0.5],[1,0.5]];portConstraint=eastwest;whiteSpace=wrap;html=1;fontStyle=0;fontColor=#FFFFFF;" parent="6jnvJd_KVT4TXYjh_vCa-8" vertex="1">
          <mxGeometry y="606" width="350" height="26" as="geometry" />
        </mxCell>
        <mxCell id="jPaITzh1_wMs5D8MoFJ9-90" value="+ btnEditProfilePress(): void" style="text;strokeColor=#000000;fillColor=#5500FF;align=left;verticalAlign=top;spacingLeft=4;spacingRight=4;overflow=hidden;rotatable=0;points=[[0,0.5],[1,0.5]];portConstraint=eastwest;whiteSpace=wrap;html=1;fontStyle=0;fontColor=#FFFFFF;" parent="6jnvJd_KVT4TXYjh_vCa-8" vertex="1">
          <mxGeometry y="632" width="350" height="26" as="geometry" />
        </mxCell>
        <mxCell id="jPaITzh1_wMs5D8MoFJ9-61" value="+ btnProfilePress(): void" style="text;strokeColor=#000000;fillColor=#5500FF;align=left;verticalAlign=top;spacingLeft=4;spacingRight=4;overflow=hidden;rotatable=0;points=[[0,0.5],[1,0.5]];portConstraint=eastwest;whiteSpace=wrap;html=1;fontColor=#FFFFFF;" parent="6jnvJd_KVT4TXYjh_vCa-8" vertex="1">
          <mxGeometry y="658" width="350" height="26" as="geometry" />
        </mxCell>
        <mxCell id="jPaITzh1_wMs5D8MoFJ9-60" value="+ btnSearchPress(): void" style="text;strokeColor=#000000;fillColor=#5500FF;align=left;verticalAlign=top;spacingLeft=4;spacingRight=4;overflow=hidden;rotatable=0;points=[[0,0.5],[1,0.5]];portConstraint=eastwest;whiteSpace=wrap;html=1;fontColor=#FFFFFF;" parent="6jnvJd_KVT4TXYjh_vCa-8" vertex="1">
          <mxGeometry y="684" width="350" height="26" as="geometry" />
        </mxCell>
        <mxCell id="jPaITzh1_wMs5D8MoFJ9-59" value="+ btnHomePress(): void" style="text;strokeColor=#000000;fillColor=#5500FF;align=left;verticalAlign=top;spacingLeft=4;spacingRight=4;overflow=hidden;rotatable=0;points=[[0,0.5],[1,0.5]];portConstraint=eastwest;whiteSpace=wrap;html=1;fontColor=#FFFFFF;" parent="6jnvJd_KVT4TXYjh_vCa-8" vertex="1">
          <mxGeometry y="710" width="350" height="26" as="geometry" />
        </mxCell>
        <mxCell id="PC12vPVq4i0meeTjriCz-39" style="edgeStyle=orthogonalEdgeStyle;rounded=0;orthogonalLoop=1;jettySize=auto;html=1;exitX=0.5;exitY=0;exitDx=0;exitDy=0;entryX=0.75;entryY=1;entryDx=0;entryDy=0;endArrow=none;startFill=0;" parent="1" source="6jnvJd_KVT4TXYjh_vCa-29" target="CeRw56cfuyo3TGLGe_MA-101" edge="1">
          <mxGeometry relative="1" as="geometry" />
        </mxCell>
        <mxCell id="6jnvJd_KVT4TXYjh_vCa-29" value="RequestVerificationGUI" style="swimlane;fontStyle=1;align=center;verticalAlign=top;childLayout=stackLayout;horizontal=1;startSize=26;horizontalStack=0;resizeParent=1;resizeParentMax=0;resizeLast=0;collapsible=1;marginBottom=0;whiteSpace=wrap;html=1;fillColor=#5500FF;fontColor=#FFFFFF;strokeColor=#000000;shadow=0;" parent="1" vertex="1">
          <mxGeometry x="-1833" y="529" width="400" height="632" as="geometry">
            <mxRectangle x="-2217" y="40.999999999999986" width="170" height="26.67" as="alternateBounds" />
          </mxGeometry>
        </mxCell>
        <mxCell id="6jnvJd_KVT4TXYjh_vCa-30" value="-title:string" style="text;strokeColor=#000000;fillColor=#5500FF;align=left;verticalAlign=top;spacingLeft=4;spacingRight=4;overflow=hidden;rotatable=0;points=[[0,0.5],[1,0.5]];portConstraint=eastwest;whiteSpace=wrap;html=1;shadow=0;fontColor=#FFFFFF;" parent="6jnvJd_KVT4TXYjh_vCa-29" vertex="1">
          <mxGeometry y="26" width="400" height="26" as="geometry" />
        </mxCell>
        <mxCell id="6jnvJd_KVT4TXYjh_vCa-39" value="-verificationStatus: string" style="text;strokeColor=#000000;fillColor=#5500FF;align=left;verticalAlign=middle;spacingLeft=4;spacingRight=4;overflow=hidden;rotatable=0;points=[[0,0.5],[1,0.5]];portConstraint=eastwest;whiteSpace=wrap;html=1;shadow=0;fontColor=#FFFFFF;" parent="6jnvJd_KVT4TXYjh_vCa-29" vertex="1">
          <mxGeometry y="52" width="400" height="26" as="geometry" />
        </mxCell>
        <mxCell id="VlC3xIB52dVL6bpTFaVF-40" value="- lblStatusMessage: Label" style="text;strokeColor=#000000;fillColor=#5500FF;align=left;verticalAlign=top;spacingLeft=4;spacingRight=4;overflow=hidden;rotatable=0;points=[[0,0.5],[1,0.5]];portConstraint=eastwest;whiteSpace=wrap;html=1;shadow=0;fontColor=#FFFFFF;" parent="6jnvJd_KVT4TXYjh_vCa-29" vertex="1">
          <mxGeometry y="78" width="400" height="26" as="geometry" />
        </mxCell>
        <mxCell id="6jnvJd_KVT4TXYjh_vCa-37" value="-uploadArea: Box" style="text;strokeColor=#000000;fillColor=#5500FF;align=left;verticalAlign=top;spacingLeft=4;spacingRight=4;overflow=hidden;rotatable=0;points=[[0,0.5],[1,0.5]];portConstraint=eastwest;whiteSpace=wrap;html=1;shadow=0;fontColor=#FFFFFF;" parent="6jnvJd_KVT4TXYjh_vCa-29" vertex="1">
          <mxGeometry y="104" width="400" height="26" as="geometry" />
        </mxCell>
        <mxCell id="6jnvJd_KVT4TXYjh_vCa-38" value="-uploadedFiles: Icon[]" style="text;strokeColor=#000000;fillColor=#5500FF;align=left;verticalAlign=top;spacingLeft=4;spacingRight=4;overflow=hidden;rotatable=0;points=[[0,0.5],[1,0.5]];portConstraint=eastwest;whiteSpace=wrap;html=1;shadow=0;fontColor=#FFFFFF;" parent="6jnvJd_KVT4TXYjh_vCa-29" vertex="1">
          <mxGeometry y="130" width="400" height="26" as="geometry" />
        </mxCell>
        <mxCell id="VlC3xIB52dVL6bpTFaVF-45" value="- isUploadedFilesEnabled: bool" style="text;strokeColor=#000000;fillColor=#5500FF;align=left;verticalAlign=top;spacingLeft=4;spacingRight=4;overflow=hidden;rotatable=0;points=[[0,0.5],[1,0.5]];portConstraint=eastwest;whiteSpace=wrap;html=1;shadow=0;fontColor=#FFFFFF;" parent="6jnvJd_KVT4TXYjh_vCa-29" vertex="1">
          <mxGeometry y="156" width="400" height="26" as="geometry" />
        </mxCell>
        <mxCell id="VlC3xIB52dVL6bpTFaVF-39" value="- isUploadEnabled: bool" style="text;strokeColor=#000000;fillColor=#5500FF;align=left;verticalAlign=top;spacingLeft=4;spacingRight=4;overflow=hidden;rotatable=0;points=[[0,0.5],[1,0.5]];portConstraint=eastwest;whiteSpace=wrap;html=1;shadow=0;fontColor=#FFFFFF;" parent="6jnvJd_KVT4TXYjh_vCa-29" vertex="1">
          <mxGeometry y="182" width="400" height="26" as="geometry" />
        </mxCell>
        <mxCell id="VlC3xIB52dVL6bpTFaVF-38" value="&lt;span style=&quot;font-weight: normal;&quot;&gt;- isEditEnabled: bool&lt;/span&gt;" style="text;strokeColor=#000000;fillColor=#5500FF;align=left;verticalAlign=top;spacingLeft=4;spacingRight=4;overflow=hidden;rotatable=0;points=[[0,0.5],[1,0.5]];portConstraint=eastwest;whiteSpace=wrap;html=1;fontStyle=1;shadow=0;fontColor=#FFFFFF;" parent="6jnvJd_KVT4TXYjh_vCa-29" vertex="1">
          <mxGeometry y="208" width="400" height="26" as="geometry" />
        </mxCell>
        <mxCell id="VlC3xIB52dVL6bpTFaVF-43" value="- isNewRequestEnabled: bool" style="text;strokeColor=#000000;fillColor=#5500FF;align=left;verticalAlign=top;spacingLeft=4;spacingRight=4;overflow=hidden;rotatable=0;points=[[0,0.5],[1,0.5]];portConstraint=eastwest;whiteSpace=wrap;html=1;shadow=0;fontColor=#FFFFFF;" parent="6jnvJd_KVT4TXYjh_vCa-29" vertex="1">
          <mxGeometry y="234" width="400" height="26" as="geometry" />
        </mxCell>
        <mxCell id="6jnvJd_KVT4TXYjh_vCa-36" value="-btnUploadFiles :Button&lt;span style=&quot;white-space: pre;&quot;&gt;&#x9;&lt;/span&gt;" style="text;strokeColor=#000000;fillColor=#5500FF;align=left;verticalAlign=top;spacingLeft=4;spacingRight=4;overflow=hidden;rotatable=0;points=[[0,0.5],[1,0.5]];portConstraint=eastwest;whiteSpace=wrap;html=1;shadow=0;fontColor=#FFFFFF;" parent="6jnvJd_KVT4TXYjh_vCa-29" vertex="1">
          <mxGeometry y="260" width="400" height="26" as="geometry" />
        </mxCell>
        <mxCell id="6jnvJd_KVT4TXYjh_vCa-118" value="-btnEditUploadedFiles : Button" style="text;strokeColor=#000000;fillColor=#5500FF;align=left;verticalAlign=middle;spacingLeft=4;spacingRight=4;overflow=hidden;rotatable=0;points=[[0,0.5],[1,0.5]];portConstraint=eastwest;whiteSpace=wrap;html=1;shadow=0;fontColor=#FFFFFF;" parent="6jnvJd_KVT4TXYjh_vCa-29" vertex="1">
          <mxGeometry y="286" width="400" height="26" as="geometry" />
        </mxCell>
        <mxCell id="6jnvJd_KVT4TXYjh_vCa-119" value="-btnNewVerificationRequest: Button" style="text;strokeColor=#000000;fillColor=#5500FF;align=left;verticalAlign=top;spacingLeft=4;spacingRight=4;overflow=hidden;rotatable=0;points=[[0,0.5],[1,0.5]];portConstraint=eastwest;whiteSpace=wrap;html=1;shadow=0;fontColor=#FFFFFF;" parent="6jnvJd_KVT4TXYjh_vCa-29" vertex="1">
          <mxGeometry y="312" width="400" height="26" as="geometry" />
        </mxCell>
        <mxCell id="6jnvJd_KVT4TXYjh_vCa-35" value="-btnHome : Button" style="text;strokeColor=#000000;fillColor=#5500FF;align=left;verticalAlign=top;spacingLeft=4;spacingRight=4;overflow=hidden;rotatable=0;points=[[0,0.5],[1,0.5]];portConstraint=eastwest;whiteSpace=wrap;html=1;shadow=0;fontColor=#FFFFFF;" parent="6jnvJd_KVT4TXYjh_vCa-29" vertex="1">
          <mxGeometry y="338" width="400" height="26" as="geometry" />
        </mxCell>
        <mxCell id="6jnvJd_KVT4TXYjh_vCa-34" value="-btnSearch : Button" style="text;strokeColor=#000000;fillColor=#5500FF;align=left;verticalAlign=top;spacingLeft=4;spacingRight=4;overflow=hidden;rotatable=0;points=[[0,0.5],[1,0.5]];portConstraint=eastwest;whiteSpace=wrap;html=1;shadow=0;fontColor=#FFFFFF;" parent="6jnvJd_KVT4TXYjh_vCa-29" vertex="1">
          <mxGeometry y="364" width="400" height="26" as="geometry" />
        </mxCell>
        <mxCell id="6jnvJd_KVT4TXYjh_vCa-33" value="-btnProfile: Button" style="text;strokeColor=#000000;fillColor=#5500FF;align=left;verticalAlign=top;spacingLeft=4;spacingRight=4;overflow=hidden;rotatable=0;points=[[0,0.5],[1,0.5]];portConstraint=eastwest;whiteSpace=wrap;html=1;shadow=0;fontColor=#FFFFFF;" parent="6jnvJd_KVT4TXYjh_vCa-29" vertex="1">
          <mxGeometry y="390" width="400" height="26" as="geometry" />
        </mxCell>
        <mxCell id="6jnvJd_KVT4TXYjh_vCa-31" value="" style="line;strokeWidth=1;fillColor=#5500FF;align=left;verticalAlign=middle;spacingTop=-1;spacingLeft=3;spacingRight=3;rotatable=0;labelPosition=right;points=[];portConstraint=eastwest;strokeColor=#000000;shadow=0;fontColor=#FFFFFF;" parent="6jnvJd_KVT4TXYjh_vCa-29" vertex="1">
          <mxGeometry y="416" width="400" height="8" as="geometry" />
        </mxCell>
        <mxCell id="XeSyGgixjgFaF0cVz5fR-48" value="+ RequestVerificationGUI(account: AccountEntity)" style="text;align=left;verticalAlign=middle;spacingLeft=4;spacingRight=4;overflow=hidden;rotatable=0;points=[[0,0.5],[1,0.5]];portConstraint=eastwest;whiteSpace=wrap;html=1;strokeColor=#000000;shadow=0;fillColor=#5500FF;fontColor=#FFFFFF;" parent="6jnvJd_KVT4TXYjh_vCa-29" vertex="1">
          <mxGeometry y="424" width="400" height="26" as="geometry" />
        </mxCell>
        <mxCell id="VlC3xIB52dVL6bpTFaVF-44" value="+ updateInterfaceBasedOnrStatus(status: String): void" style="text;align=left;verticalAlign=top;spacingLeft=4;spacingRight=4;overflow=hidden;rotatable=0;points=[[0,0.5],[1,0.5]];portConstraint=eastwest;whiteSpace=wrap;html=1;fillColor=#5500FF;strokeColor=#000000;shadow=0;fontColor=#FFFFFF;" parent="6jnvJd_KVT4TXYjh_vCa-29" vertex="1">
          <mxGeometry y="450" width="400" height="26" as="geometry" />
        </mxCell>
        <mxCell id="6jnvJd_KVT4TXYjh_vCa-32" value="+ btnUploadFilesPress() : void" style="text;align=left;verticalAlign=top;spacingLeft=4;spacingRight=4;overflow=hidden;rotatable=0;points=[[0,0.5],[1,0.5]];portConstraint=eastwest;whiteSpace=wrap;html=1;fillColor=#5500FF;strokeColor=#000000;shadow=0;fontColor=#FFFFFF;" parent="6jnvJd_KVT4TXYjh_vCa-29" vertex="1">
          <mxGeometry y="476" width="400" height="26" as="geometry" />
        </mxCell>
        <mxCell id="KohEN2HkIrE54TTfwqVY-38" value="+ btnEditUploadFilesPress(): void" style="text;align=left;verticalAlign=top;spacingLeft=4;spacingRight=4;overflow=hidden;rotatable=0;points=[[0,0.5],[1,0.5]];portConstraint=eastwest;whiteSpace=wrap;html=1;fillColor=#5500FF;strokeColor=#000000;shadow=0;fontColor=#FFFFFF;" parent="6jnvJd_KVT4TXYjh_vCa-29" vertex="1">
          <mxGeometry y="502" width="400" height="26" as="geometry" />
        </mxCell>
        <mxCell id="KohEN2HkIrE54TTfwqVY-37" value="+ btnNewVerificationRequestPress(): void" style="text;align=left;verticalAlign=top;spacingLeft=4;spacingRight=4;overflow=hidden;rotatable=0;points=[[0,0.5],[1,0.5]];portConstraint=eastwest;whiteSpace=wrap;html=1;fillColor=#5500FF;strokeColor=#000000;shadow=0;fontColor=#FFFFFF;" parent="6jnvJd_KVT4TXYjh_vCa-29" vertex="1">
          <mxGeometry y="528" width="400" height="26" as="geometry" />
        </mxCell>
        <mxCell id="jPaITzh1_wMs5D8MoFJ9-62" value="+ btnHomePress(): void" style="text;strokeColor=#000000;fillColor=#5500FF;align=left;verticalAlign=top;spacingLeft=4;spacingRight=4;overflow=hidden;rotatable=0;points=[[0,0.5],[1,0.5]];portConstraint=eastwest;whiteSpace=wrap;html=1;fontColor=#FFFFFF;shadow=0;" parent="6jnvJd_KVT4TXYjh_vCa-29" vertex="1">
          <mxGeometry y="554" width="400" height="26" as="geometry" />
        </mxCell>
        <mxCell id="jPaITzh1_wMs5D8MoFJ9-63" value="+ btnSearchPress(): void" style="text;strokeColor=#000000;fillColor=#5500FF;align=left;verticalAlign=top;spacingLeft=4;spacingRight=4;overflow=hidden;rotatable=0;points=[[0,0.5],[1,0.5]];portConstraint=eastwest;whiteSpace=wrap;html=1;fontColor=#FFFFFF;shadow=0;" parent="6jnvJd_KVT4TXYjh_vCa-29" vertex="1">
          <mxGeometry y="580" width="400" height="26" as="geometry" />
        </mxCell>
        <mxCell id="jPaITzh1_wMs5D8MoFJ9-64" value="+ btnProfilePress(): void" style="text;strokeColor=#000000;fillColor=#5500FF;align=left;verticalAlign=top;spacingLeft=4;spacingRight=4;overflow=hidden;rotatable=0;points=[[0,0.5],[1,0.5]];portConstraint=eastwest;whiteSpace=wrap;html=1;fontColor=#FFFFFF;shadow=0;" parent="6jnvJd_KVT4TXYjh_vCa-29" vertex="1">
          <mxGeometry y="606" width="400" height="26" as="geometry" />
        </mxCell>
        <mxCell id="6jnvJd_KVT4TXYjh_vCa-63" value="OrganizedEventsGUI" style="swimlane;fontStyle=1;align=center;verticalAlign=top;childLayout=stackLayout;horizontal=1;startSize=26;horizontalStack=0;resizeParent=1;resizeParentMax=0;resizeLast=0;collapsible=1;marginBottom=0;whiteSpace=wrap;html=1;fillColor=#5500FF;fontColor=#FFFFFF;strokeColor=#000000;" parent="1" vertex="1" collapsed="1">
          <mxGeometry x="-2274" y="-323" width="170" height="26" as="geometry">
            <mxRectangle x="-4056" y="1429" width="280" height="242" as="alternateBounds" />
          </mxGeometry>
        </mxCell>
        <mxCell id="jPaITzh1_wMs5D8MoFJ9-170" value="-btnHome: Button&lt;span style=&quot;white-space: pre;&quot;&gt;&#x9;&lt;/span&gt;" style="text;strokeColor=#000000;fillColor=#5500FF;align=left;verticalAlign=top;spacingLeft=4;spacingRight=4;overflow=hidden;rotatable=0;points=[[0,0.5],[1,0.5]];portConstraint=eastwest;whiteSpace=wrap;html=1;fontColor=#FFFFFF;" parent="6jnvJd_KVT4TXYjh_vCa-63" vertex="1">
          <mxGeometry y="26" width="280" height="26" as="geometry" />
        </mxCell>
        <mxCell id="jPaITzh1_wMs5D8MoFJ9-171" value="-btnSearch: Button" style="text;strokeColor=#000000;fillColor=#5500FF;align=left;verticalAlign=top;spacingLeft=4;spacingRight=4;overflow=hidden;rotatable=0;points=[[0,0.5],[1,0.5]];portConstraint=eastwest;whiteSpace=wrap;html=1;fontColor=#FFFFFF;" parent="6jnvJd_KVT4TXYjh_vCa-63" vertex="1">
          <mxGeometry y="52" width="280" height="26" as="geometry" />
        </mxCell>
        <mxCell id="jPaITzh1_wMs5D8MoFJ9-172" value="-btnProfile: Button" style="text;strokeColor=#000000;fillColor=#5500FF;align=left;verticalAlign=top;spacingLeft=4;spacingRight=4;overflow=hidden;rotatable=0;points=[[0,0.5],[1,0.5]];portConstraint=eastwest;whiteSpace=wrap;html=1;fontColor=#FFFFFF;" parent="6jnvJd_KVT4TXYjh_vCa-63" vertex="1">
          <mxGeometry y="78" width="280" height="26" as="geometry" />
        </mxCell>
        <mxCell id="jPaITzh1_wMs5D8MoFJ9-173" value="&lt;font style=&quot;&quot;&gt;-eventTabGroups:&amp;nbsp;&lt;span style=&quot;text-align: center;&quot;&gt;EventTabManageGUI&lt;/span&gt;[]&lt;/font&gt;" style="text;strokeColor=#000000;fillColor=#9E6CFF;align=left;verticalAlign=top;spacingLeft=4;spacingRight=4;overflow=hidden;rotatable=0;points=[[0,0.5],[1,0.5]];portConstraint=eastwest;whiteSpace=wrap;html=1;fontColor=#FFFFFF;" parent="6jnvJd_KVT4TXYjh_vCa-63" vertex="1">
          <mxGeometry y="104" width="280" height="26" as="geometry" />
        </mxCell>
        <mxCell id="6jnvJd_KVT4TXYjh_vCa-65" value="" style="line;strokeWidth=1;fillColor=#5500FF;align=left;verticalAlign=middle;spacingTop=-1;spacingLeft=3;spacingRight=3;rotatable=0;labelPosition=right;points=[];portConstraint=eastwest;strokeColor=#000000;fontColor=#FFFFFF;" parent="6jnvJd_KVT4TXYjh_vCa-63" vertex="1">
          <mxGeometry y="130" width="280" height="8" as="geometry" />
        </mxCell>
        <mxCell id="GOw8maG6rHlXjGwnNqGd-40" value="+ OrganizedEventsGUI()" style="text;align=left;verticalAlign=top;spacingLeft=4;spacingRight=4;overflow=hidden;rotatable=0;points=[[0,0.5],[1,0.5]];portConstraint=eastwest;whiteSpace=wrap;html=1;fillColor=#5500FF;strokeColor=#000000;fontColor=#FFFFFF;" parent="6jnvJd_KVT4TXYjh_vCa-63" vertex="1">
          <mxGeometry y="138" width="280" height="26" as="geometry" />
        </mxCell>
        <mxCell id="jPaITzh1_wMs5D8MoFJ9-68" value="+ btnHomePress(): void" style="text;strokeColor=#000000;fillColor=#5500FF;align=left;verticalAlign=top;spacingLeft=4;spacingRight=4;overflow=hidden;rotatable=0;points=[[0,0.5],[1,0.5]];portConstraint=eastwest;whiteSpace=wrap;html=1;fontColor=#FFFFFF;" parent="6jnvJd_KVT4TXYjh_vCa-63" vertex="1">
          <mxGeometry y="164" width="280" height="26" as="geometry" />
        </mxCell>
        <mxCell id="jPaITzh1_wMs5D8MoFJ9-69" value="+ btnSearchPress(): void" style="text;strokeColor=#000000;fillColor=#5500FF;align=left;verticalAlign=top;spacingLeft=4;spacingRight=4;overflow=hidden;rotatable=0;points=[[0,0.5],[1,0.5]];portConstraint=eastwest;whiteSpace=wrap;html=1;fontColor=#FFFFFF;" parent="6jnvJd_KVT4TXYjh_vCa-63" vertex="1">
          <mxGeometry y="190" width="280" height="26" as="geometry" />
        </mxCell>
        <mxCell id="jPaITzh1_wMs5D8MoFJ9-70" value="+ btnProfilePress(): void" style="text;strokeColor=#000000;fillColor=#5500FF;align=left;verticalAlign=top;spacingLeft=4;spacingRight=4;overflow=hidden;rotatable=0;points=[[0,0.5],[1,0.5]];portConstraint=eastwest;whiteSpace=wrap;html=1;fontColor=#FFFFFF;" parent="6jnvJd_KVT4TXYjh_vCa-63" vertex="1">
          <mxGeometry y="216" width="280" height="26" as="geometry" />
        </mxCell>
        <mxCell id="6jnvJd_KVT4TXYjh_vCa-74" value="EditEventDetailsGUI" style="swimlane;fontStyle=1;align=center;verticalAlign=top;childLayout=stackLayout;horizontal=1;startSize=26;horizontalStack=0;resizeParent=1;resizeParentMax=0;resizeLast=0;collapsible=1;marginBottom=0;whiteSpace=wrap;html=1;fillColor=#5500FF;strokeColor=#000000;fontColor=#FFFFFF;" parent="1" vertex="1" collapsed="1">
          <mxGeometry x="-2274" y="-231" width="170" height="26" as="geometry">
            <mxRectangle x="-3233" y="1691" width="320" height="554" as="alternateBounds" />
          </mxGeometry>
        </mxCell>
        <mxCell id="6jnvJd_KVT4TXYjh_vCa-75" value="-eventPics: Image[]" style="text;strokeColor=#000000;fillColor=#5500FF;align=left;verticalAlign=top;spacingLeft=4;spacingRight=4;overflow=hidden;rotatable=0;points=[[0,0.5],[1,0.5]];portConstraint=eastwest;whiteSpace=wrap;html=1;fontColor=#FFFFFF;" parent="6jnvJd_KVT4TXYjh_vCa-74" vertex="1">
          <mxGeometry y="26" width="320" height="26" as="geometry" />
        </mxCell>
        <mxCell id="6jnvJd_KVT4TXYjh_vCa-76" value="-fldTitle: Field" style="text;strokeColor=#000000;fillColor=#5500FF;align=left;verticalAlign=top;spacingLeft=4;spacingRight=4;overflow=hidden;rotatable=0;points=[[0,0.5],[1,0.5]];portConstraint=eastwest;whiteSpace=wrap;html=1;fontColor=#FFFFFF;" parent="6jnvJd_KVT4TXYjh_vCa-74" vertex="1">
          <mxGeometry y="52" width="320" height="26" as="geometry" />
        </mxCell>
        <mxCell id="6jnvJd_KVT4TXYjh_vCa-77" value="-fldDescription: Field" style="text;strokeColor=#000000;fillColor=#5500FF;align=left;verticalAlign=top;spacingLeft=4;spacingRight=4;overflow=hidden;rotatable=0;points=[[0,0.5],[1,0.5]];portConstraint=eastwest;whiteSpace=wrap;html=1;fontColor=#FFFFFF;" parent="6jnvJd_KVT4TXYjh_vCa-74" vertex="1">
          <mxGeometry y="78" width="320" height="26" as="geometry" />
        </mxCell>
        <mxCell id="6jnvJd_KVT4TXYjh_vCa-78" value="-btnLocation: Button" style="text;strokeColor=#000000;fillColor=#5500FF;align=left;verticalAlign=top;spacingLeft=4;spacingRight=4;overflow=hidden;rotatable=0;points=[[0,0.5],[1,0.5]];portConstraint=eastwest;whiteSpace=wrap;html=1;fontColor=#FFFFFF;" parent="6jnvJd_KVT4TXYjh_vCa-74" vertex="1">
          <mxGeometry y="104" width="320" height="26" as="geometry" />
        </mxCell>
        <mxCell id="6jnvJd_KVT4TXYjh_vCa-79" value="-btnEditPhotos: Button" style="text;strokeColor=#000000;fillColor=#5500FF;align=left;verticalAlign=top;spacingLeft=4;spacingRight=4;overflow=hidden;rotatable=0;points=[[0,0.5],[1,0.5]];portConstraint=eastwest;whiteSpace=wrap;html=1;fontColor=#FFFFFF;" parent="6jnvJd_KVT4TXYjh_vCa-74" vertex="1">
          <mxGeometry y="130" width="320" height="26" as="geometry" />
        </mxCell>
        <mxCell id="jPaITzh1_wMs5D8MoFJ9-185" value="-btnDateTime: Button" style="text;strokeColor=#000000;fillColor=#5500FF;align=left;verticalAlign=top;spacingLeft=4;spacingRight=4;overflow=hidden;rotatable=0;points=[[0,0.5],[1,0.5]];portConstraint=eastwest;whiteSpace=wrap;html=1;fontColor=#FFFFFF;" parent="6jnvJd_KVT4TXYjh_vCa-74" vertex="1">
          <mxGeometry y="156" width="320" height="26" as="geometry" />
        </mxCell>
        <mxCell id="6jnvJd_KVT4TXYjh_vCa-80" value="-btnSeeCategories: Button" style="text;strokeColor=#000000;fillColor=#5500FF;align=left;verticalAlign=top;spacingLeft=4;spacingRight=4;overflow=hidden;rotatable=0;points=[[0,0.5],[1,0.5]];portConstraint=eastwest;whiteSpace=wrap;html=1;fontColor=#FFFFFF;" parent="6jnvJd_KVT4TXYjh_vCa-74" vertex="1">
          <mxGeometry y="182" width="320" height="26" as="geometry" />
        </mxCell>
        <mxCell id="6jnvJd_KVT4TXYjh_vCa-81" value="-btnHome: Button" style="text;strokeColor=#000000;fillColor=#5500FF;align=left;verticalAlign=top;spacingLeft=4;spacingRight=4;overflow=hidden;rotatable=0;points=[[0,0.5],[1,0.5]];portConstraint=eastwest;whiteSpace=wrap;html=1;fontColor=#FFFFFF;" parent="6jnvJd_KVT4TXYjh_vCa-74" vertex="1">
          <mxGeometry y="208" width="320" height="26" as="geometry" />
        </mxCell>
        <mxCell id="6jnvJd_KVT4TXYjh_vCa-82" value="-btnSearch: Button" style="text;strokeColor=#000000;fillColor=#5500FF;align=left;verticalAlign=top;spacingLeft=4;spacingRight=4;overflow=hidden;rotatable=0;points=[[0,0.5],[1,0.5]];portConstraint=eastwest;whiteSpace=wrap;html=1;fontColor=#FFFFFF;" parent="6jnvJd_KVT4TXYjh_vCa-74" vertex="1">
          <mxGeometry y="234" width="320" height="26" as="geometry" />
        </mxCell>
        <mxCell id="6jnvJd_KVT4TXYjh_vCa-83" value="-btnProfile: Button" style="text;strokeColor=#000000;fillColor=#5500FF;align=left;verticalAlign=top;spacingLeft=4;spacingRight=4;overflow=hidden;rotatable=0;points=[[0,0.5],[1,0.5]];portConstraint=eastwest;whiteSpace=wrap;html=1;fontColor=#FFFFFF;" parent="6jnvJd_KVT4TXYjh_vCa-74" vertex="1">
          <mxGeometry y="260" width="320" height="26" as="geometry" />
        </mxCell>
        <mxCell id="6jnvJd_KVT4TXYjh_vCa-84" value="" style="line;strokeWidth=1;fillColor=#5500FF;align=left;verticalAlign=middle;spacingTop=-1;spacingLeft=3;spacingRight=3;rotatable=0;labelPosition=right;points=[];portConstraint=eastwest;strokeColor=#000000;fontColor=#FFFFFF;" parent="6jnvJd_KVT4TXYjh_vCa-74" vertex="1">
          <mxGeometry y="286" width="320" height="8" as="geometry" />
        </mxCell>
        <mxCell id="GOw8maG6rHlXjGwnNqGd-38" value="+ EditEventDetailsGUI()" style="text;strokeColor=#000000;fillColor=#5500FF;align=left;verticalAlign=top;spacingLeft=4;spacingRight=4;overflow=hidden;rotatable=0;points=[[0,0.5],[1,0.5]];portConstraint=eastwest;whiteSpace=wrap;html=1;fontColor=#FFFFFF;" parent="6jnvJd_KVT4TXYjh_vCa-74" vertex="1">
          <mxGeometry y="294" width="320" height="26" as="geometry" />
        </mxCell>
        <mxCell id="jPaITzh1_wMs5D8MoFJ9-71" value="+ btnHomePress(): void" style="text;align=left;verticalAlign=top;spacingLeft=4;spacingRight=4;overflow=hidden;rotatable=0;points=[[0,0.5],[1,0.5]];portConstraint=eastwest;whiteSpace=wrap;html=1;strokeColor=#000000;fillColor=#5500FF;fontColor=#FFFFFF;" parent="6jnvJd_KVT4TXYjh_vCa-74" vertex="1">
          <mxGeometry y="320" width="320" height="26" as="geometry" />
        </mxCell>
        <mxCell id="jPaITzh1_wMs5D8MoFJ9-72" value="+ btnSearchPress(): void" style="text;strokeColor=#000000;fillColor=#5500FF;align=left;verticalAlign=top;spacingLeft=4;spacingRight=4;overflow=hidden;rotatable=0;points=[[0,0.5],[1,0.5]];portConstraint=eastwest;whiteSpace=wrap;html=1;fontColor=#FFFFFF;" parent="6jnvJd_KVT4TXYjh_vCa-74" vertex="1">
          <mxGeometry y="346" width="320" height="26" as="geometry" />
        </mxCell>
        <mxCell id="jPaITzh1_wMs5D8MoFJ9-73" value="+ btnProfilePress(): void" style="text;strokeColor=#000000;fillColor=#5500FF;align=left;verticalAlign=top;spacingLeft=4;spacingRight=4;overflow=hidden;rotatable=0;points=[[0,0.5],[1,0.5]];portConstraint=eastwest;whiteSpace=wrap;html=1;fontColor=#FFFFFF;" parent="6jnvJd_KVT4TXYjh_vCa-74" vertex="1">
          <mxGeometry y="372" width="320" height="26" as="geometry" />
        </mxCell>
        <mxCell id="jPaITzh1_wMs5D8MoFJ9-188" value="+ editTitlePressed(): void" style="text;strokeColor=#000000;fillColor=#5500FF;align=left;verticalAlign=top;spacingLeft=4;spacingRight=4;overflow=hidden;rotatable=0;points=[[0,0.5],[1,0.5]];portConstraint=eastwest;whiteSpace=wrap;html=1;fontColor=#FFFFFF;" parent="6jnvJd_KVT4TXYjh_vCa-74" vertex="1">
          <mxGeometry y="398" width="320" height="26" as="geometry" />
        </mxCell>
        <mxCell id="jPaITzh1_wMs5D8MoFJ9-187" value="+ editDescriptionPressed(): void" style="text;strokeColor=#000000;fillColor=#5500FF;align=left;verticalAlign=top;spacingLeft=4;spacingRight=4;overflow=hidden;rotatable=0;points=[[0,0.5],[1,0.5]];portConstraint=eastwest;whiteSpace=wrap;html=1;fontColor=#FFFFFF;" parent="6jnvJd_KVT4TXYjh_vCa-74" vertex="1">
          <mxGeometry y="424" width="320" height="26" as="geometry" />
        </mxCell>
        <mxCell id="jPaITzh1_wMs5D8MoFJ9-186" value="+ btnLocationPress(): void" style="text;strokeColor=#000000;fillColor=#5500FF;align=left;verticalAlign=top;spacingLeft=4;spacingRight=4;overflow=hidden;rotatable=0;points=[[0,0.5],[1,0.5]];portConstraint=eastwest;whiteSpace=wrap;html=1;fontColor=#FFFFFF;" parent="6jnvJd_KVT4TXYjh_vCa-74" vertex="1">
          <mxGeometry y="450" width="320" height="26" as="geometry" />
        </mxCell>
        <mxCell id="6jnvJd_KVT4TXYjh_vCa-95" value="+ btnEditPhotosPress(): void" style="text;strokeColor=#000000;fillColor=#5500FF;align=left;verticalAlign=top;spacingLeft=4;spacingRight=4;overflow=hidden;rotatable=0;points=[[0,0.5],[1,0.5]];portConstraint=eastwest;whiteSpace=wrap;html=1;fontColor=#FFFFFF;" parent="6jnvJd_KVT4TXYjh_vCa-74" vertex="1">
          <mxGeometry y="476" width="320" height="26" as="geometry" />
        </mxCell>
        <mxCell id="6jnvJd_KVT4TXYjh_vCa-94" value="+ btnDateTimePress(): void" style="text;strokeColor=#000000;fillColor=#5500FF;align=left;verticalAlign=top;spacingLeft=4;spacingRight=4;overflow=hidden;rotatable=0;points=[[0,0.5],[1,0.5]];portConstraint=eastwest;whiteSpace=wrap;html=1;fontColor=#FFFFFF;" parent="6jnvJd_KVT4TXYjh_vCa-74" vertex="1">
          <mxGeometry y="502" width="320" height="26" as="geometry" />
        </mxCell>
        <mxCell id="6jnvJd_KVT4TXYjh_vCa-93" value="+ btnSeeCategoriesPress(): void" style="text;strokeColor=#000000;fillColor=#5500FF;align=left;verticalAlign=top;spacingLeft=4;spacingRight=4;overflow=hidden;rotatable=0;points=[[0,0.5],[1,0.5]];portConstraint=eastwest;whiteSpace=wrap;html=1;fontColor=#FFFFFF;" parent="6jnvJd_KVT4TXYjh_vCa-74" vertex="1">
          <mxGeometry y="528" width="320" height="26" as="geometry" />
        </mxCell>
        <mxCell id="jPaITzh1_wMs5D8MoFJ9-148" value="EventTabManageGUI" style="swimlane;fontStyle=1;align=center;verticalAlign=top;childLayout=stackLayout;horizontal=1;startSize=26;horizontalStack=0;resizeParent=1;resizeParentMax=0;resizeLast=0;collapsible=1;marginBottom=0;whiteSpace=wrap;html=1;fillColor=#5500FF;strokeColor=#000000;fontColor=#FFFFFF;" parent="1" vertex="1" collapsed="1">
          <mxGeometry x="-2274" y="-275" width="170" height="26" as="geometry">
            <mxRectangle x="-4061" y="1696" width="290" height="372" as="alternateBounds" />
          </mxGeometry>
        </mxCell>
        <mxCell id="jPaITzh1_wMs5D8MoFJ9-149" value="-eventImg: Image" style="text;align=left;verticalAlign=top;spacingLeft=4;spacingRight=4;overflow=hidden;rotatable=0;points=[[0,0.5],[1,0.5]];portConstraint=eastwest;whiteSpace=wrap;html=1;fillColor=#5500FF;strokeColor=#000000;fontColor=#FFFFFF;" parent="jPaITzh1_wMs5D8MoFJ9-148" vertex="1">
          <mxGeometry y="26" width="290" height="26" as="geometry" />
        </mxCell>
        <mxCell id="jPaITzh1_wMs5D8MoFJ9-150" value="-eventName: String" style="text;align=left;verticalAlign=top;spacingLeft=4;spacingRight=4;overflow=hidden;rotatable=0;points=[[0,0.5],[1,0.5]];portConstraint=eastwest;whiteSpace=wrap;html=1;fillColor=#5500FF;strokeColor=#000000;fontColor=#FFFFFF;" parent="jPaITzh1_wMs5D8MoFJ9-148" vertex="1">
          <mxGeometry y="52" width="290" height="26" as="geometry" />
        </mxCell>
        <mxCell id="jPaITzh1_wMs5D8MoFJ9-164" value="-eventStatus: EventStatus" style="text;align=left;verticalAlign=top;spacingLeft=4;spacingRight=4;overflow=hidden;rotatable=0;points=[[0,0.5],[1,0.5]];portConstraint=eastwest;whiteSpace=wrap;html=1;fillColor=#5500FF;strokeColor=#000000;fontColor=#FFFFFF;" parent="jPaITzh1_wMs5D8MoFJ9-148" vertex="1">
          <mxGeometry y="78" width="290" height="26" as="geometry" />
        </mxCell>
        <mxCell id="jPaITzh1_wMs5D8MoFJ9-152" value="-eventL&lt;span style=&quot;background-color: transparent;&quot;&gt;ikeCounter: integer&lt;/span&gt;" style="text;align=left;verticalAlign=top;spacingLeft=4;spacingRight=4;overflow=hidden;rotatable=0;points=[[0,0.5],[1,0.5]];portConstraint=eastwest;whiteSpace=wrap;html=1;fillColor=#5500FF;strokeColor=#000000;fontColor=#FFFFFF;" parent="jPaITzh1_wMs5D8MoFJ9-148" vertex="1">
          <mxGeometry y="104" width="290" height="26" as="geometry" />
        </mxCell>
        <mxCell id="jPaITzh1_wMs5D8MoFJ9-168" value="-userHasLiked: bool" style="text;align=left;verticalAlign=top;spacingLeft=4;spacingRight=4;overflow=hidden;rotatable=0;points=[[0,0.5],[1,0.5]];portConstraint=eastwest;whiteSpace=wrap;html=1;fillColor=#5500FF;strokeColor=#000000;fontColor=#FFFFFF;" parent="jPaITzh1_wMs5D8MoFJ9-148" vertex="1">
          <mxGeometry y="130" width="290" height="26" as="geometry" />
        </mxCell>
        <mxCell id="jPaITzh1_wMs5D8MoFJ9-153" value="-btnLikeEvent: Button" style="text;align=left;verticalAlign=top;spacingLeft=4;spacingRight=4;overflow=hidden;rotatable=0;points=[[0,0.5],[1,0.5]];portConstraint=eastwest;whiteSpace=wrap;html=1;fillColor=#5500FF;strokeColor=#000000;fontColor=#FFFFFF;" parent="jPaITzh1_wMs5D8MoFJ9-148" vertex="1">
          <mxGeometry y="156" width="290" height="26" as="geometry" />
        </mxCell>
        <mxCell id="jPaITzh1_wMs5D8MoFJ9-166" value="-btnDeleteEvent: Button" style="text;align=left;verticalAlign=top;spacingLeft=4;spacingRight=4;overflow=hidden;rotatable=0;points=[[0,0.5],[1,0.5]];portConstraint=eastwest;whiteSpace=wrap;html=1;fillColor=#5500FF;strokeColor=#000000;fontColor=#FFFFFF;" parent="jPaITzh1_wMs5D8MoFJ9-148" vertex="1">
          <mxGeometry y="182" width="290" height="26" as="geometry" />
        </mxCell>
        <mxCell id="jPaITzh1_wMs5D8MoFJ9-169" value="-btnEditEvent: Button" style="text;align=left;verticalAlign=top;spacingLeft=4;spacingRight=4;overflow=hidden;rotatable=0;points=[[0,0.5],[1,0.5]];portConstraint=eastwest;whiteSpace=wrap;html=1;fillColor=#5500FF;strokeColor=#000000;fontColor=#FFFFFF;" parent="jPaITzh1_wMs5D8MoFJ9-148" vertex="1">
          <mxGeometry y="208" width="290" height="26" as="geometry" />
        </mxCell>
        <mxCell id="jPaITzh1_wMs5D8MoFJ9-157" value="" style="line;strokeWidth=1;align=left;verticalAlign=middle;spacingTop=-1;spacingLeft=3;spacingRight=3;rotatable=0;labelPosition=right;points=[];portConstraint=eastwest;fillColor=#5500FF;strokeColor=#000000;fontColor=#FFFFFF;" parent="jPaITzh1_wMs5D8MoFJ9-148" vertex="1">
          <mxGeometry y="234" width="290" height="8" as="geometry" />
        </mxCell>
        <mxCell id="GOw8maG6rHlXjGwnNqGd-39" value="+ EventTabManageGUI()" style="text;align=left;verticalAlign=top;spacingLeft=4;spacingRight=4;overflow=hidden;rotatable=0;points=[[0,0.5],[1,0.5]];portConstraint=eastwest;whiteSpace=wrap;html=1;fillColor=#5500FF;strokeColor=#000000;fontColor=#FFFFFF;" parent="jPaITzh1_wMs5D8MoFJ9-148" vertex="1">
          <mxGeometry y="242" width="290" height="26" as="geometry" />
        </mxCell>
        <mxCell id="jPaITzh1_wMs5D8MoFJ9-159" value="+ btnEditEventPress(event: EventEntity):void" style="text;align=left;verticalAlign=top;spacingLeft=4;spacingRight=4;overflow=hidden;rotatable=0;points=[[0,0.5],[1,0.5]];portConstraint=eastwest;whiteSpace=wrap;html=1;fillColor=#5500FF;strokeColor=#000000;fontColor=#FFFFFF;" parent="jPaITzh1_wMs5D8MoFJ9-148" vertex="1">
          <mxGeometry y="268" width="290" height="26" as="geometry" />
        </mxCell>
        <mxCell id="jPaITzh1_wMs5D8MoFJ9-158" value="+ btnDeleteEventPress(event: EventEntity): void" style="text;align=left;verticalAlign=top;spacingLeft=4;spacingRight=4;overflow=hidden;rotatable=0;points=[[0,0.5],[1,0.5]];portConstraint=eastwest;whiteSpace=wrap;html=1;fillColor=#5500FF;strokeColor=#000000;fontColor=#FFFFFF;" parent="jPaITzh1_wMs5D8MoFJ9-148" vertex="1">
          <mxGeometry y="294" width="290" height="26" as="geometry" />
        </mxCell>
        <mxCell id="jPaITzh1_wMs5D8MoFJ9-160" value="+ btnLikeEventPress(event: EventEntity): void" style="text;align=left;verticalAlign=top;spacingLeft=4;spacingRight=4;overflow=hidden;rotatable=0;points=[[0,0.5],[1,0.5]];portConstraint=eastwest;whiteSpace=wrap;html=1;fillColor=#5500FF;strokeColor=#000000;fontColor=#FFFFFF;" parent="jPaITzh1_wMs5D8MoFJ9-148" vertex="1">
          <mxGeometry y="320" width="290" height="26" as="geometry" />
        </mxCell>
        <mxCell id="jNVA8SilHj7UU1Rzbvut-38" value="+ showEmptyListMessage(): void" style="text;align=left;verticalAlign=top;spacingLeft=4;spacingRight=4;overflow=hidden;rotatable=0;points=[[0,0.5],[1,0.5]];portConstraint=eastwest;whiteSpace=wrap;html=1;fillColor=#5500FF;strokeColor=#000000;fontColor=#FFFFFF;" parent="jPaITzh1_wMs5D8MoFJ9-148" vertex="1">
          <mxGeometry y="346" width="290" height="26" as="geometry" />
        </mxCell>
        <mxCell id="jPaITzh1_wMs5D8MoFJ9-192" value="CreateEventGUI" style="swimlane;fontStyle=1;align=center;verticalAlign=top;childLayout=stackLayout;horizontal=1;startSize=26;horizontalStack=0;resizeParent=1;resizeParentMax=0;resizeLast=0;collapsible=1;marginBottom=0;whiteSpace=wrap;html=1;fillColor=#5500FF;fontColor=#FFFFFF;strokeColor=#000000;" parent="1" vertex="1" collapsed="1">
          <mxGeometry x="-2274" y="-369" width="170" height="26" as="geometry">
            <mxRectangle x="-3258" y="1360" width="340" height="528" as="alternateBounds" />
          </mxGeometry>
        </mxCell>
        <mxCell id="jPaITzh1_wMs5D8MoFJ9-193" value="-txtTitle: TextField" style="text;strokeColor=#000000;fillColor=#5500FF;align=left;verticalAlign=top;spacingLeft=4;spacingRight=4;overflow=hidden;rotatable=0;points=[[0,0.5],[1,0.5]];portConstraint=eastwest;whiteSpace=wrap;html=1;fontColor=#FFFFFF;" parent="jPaITzh1_wMs5D8MoFJ9-192" vertex="1">
          <mxGeometry y="26" width="340" height="26" as="geometry" />
        </mxCell>
        <mxCell id="9D-JCPpdXV5FDKFmt_kk-45" value="-txtDescription: TextArea" style="text;strokeColor=#000000;fillColor=#5500FF;align=left;verticalAlign=top;spacingLeft=4;spacingRight=4;overflow=hidden;rotatable=0;points=[[0,0.5],[1,0.5]];portConstraint=eastwest;whiteSpace=wrap;html=1;fontColor=#FFFFFF;" parent="jPaITzh1_wMs5D8MoFJ9-192" vertex="1">
          <mxGeometry y="52" width="340" height="26" as="geometry" />
        </mxCell>
        <mxCell id="PYkve0OOT77rfD5Jo40y-42" value="-lblVenueLocation: Label" style="text;strokeColor=#000000;fillColor=#5500FF;align=left;verticalAlign=top;spacingLeft=4;spacingRight=4;overflow=hidden;rotatable=0;points=[[0,0.5],[1,0.5]];portConstraint=eastwest;whiteSpace=wrap;html=1;fontColor=#FFFFFF;" parent="jPaITzh1_wMs5D8MoFJ9-192" vertex="1">
          <mxGeometry y="78" width="340" height="26" as="geometry" />
        </mxCell>
        <mxCell id="9D-JCPpdXV5FDKFmt_kk-44" value="-btnUploadPhotos: Button" style="text;strokeColor=#000000;fillColor=#5500FF;align=left;verticalAlign=top;spacingLeft=4;spacingRight=4;overflow=hidden;rotatable=0;points=[[0,0.5],[1,0.5]];portConstraint=eastwest;whiteSpace=wrap;html=1;fontColor=#FFFFFF;" parent="jPaITzh1_wMs5D8MoFJ9-192" vertex="1">
          <mxGeometry y="104" width="340" height="26" as="geometry" />
        </mxCell>
        <mxCell id="9D-JCPpdXV5FDKFmt_kk-43" value="-btnSelectLocation: Button" style="text;align=left;verticalAlign=top;spacingLeft=4;spacingRight=4;overflow=hidden;rotatable=0;points=[[0,0.5],[1,0.5]];portConstraint=eastwest;whiteSpace=wrap;html=1;strokeColor=#000000;fillColor=#5500FF;fontColor=#FFFFFF;" parent="jPaITzh1_wMs5D8MoFJ9-192" vertex="1">
          <mxGeometry y="130" width="340" height="26" as="geometry" />
        </mxCell>
        <mxCell id="PYkve0OOT77rfD5Jo40y-41" value="-isSelectLocationEnabled: bool" style="text;align=left;verticalAlign=top;spacingLeft=4;spacingRight=4;overflow=hidden;rotatable=0;points=[[0,0.5],[1,0.5]];portConstraint=eastwest;whiteSpace=wrap;html=1;strokeColor=#000000;fillColor=#5500FF;fontColor=#FFFFFF;" parent="jPaITzh1_wMs5D8MoFJ9-192" vertex="1">
          <mxGeometry y="156" width="340" height="26" as="geometry" />
        </mxCell>
        <mxCell id="9D-JCPpdXV5FDKFmt_kk-41" value="-btnSelectDateTime: Button" style="text;align=left;verticalAlign=top;spacingLeft=4;spacingRight=4;overflow=hidden;rotatable=0;points=[[0,0.5],[1,0.5]];portConstraint=eastwest;whiteSpace=wrap;html=1;strokeColor=#000000;fillColor=#5500FF;fontColor=#FFFFFF;" parent="jPaITzh1_wMs5D8MoFJ9-192" vertex="1">
          <mxGeometry y="182" width="340" height="26" as="geometry" />
        </mxCell>
        <mxCell id="9D-JCPpdXV5FDKFmt_kk-59" value="-btnSelectCategories: Button" style="text;align=left;verticalAlign=top;spacingLeft=4;spacingRight=4;overflow=hidden;rotatable=0;points=[[0,0.5],[1,0.5]];portConstraint=eastwest;whiteSpace=wrap;html=1;strokeColor=#000000;fillColor=#5500FF;fontColor=#FFFFFF;" parent="jPaITzh1_wMs5D8MoFJ9-192" vertex="1">
          <mxGeometry y="208" width="340" height="26" as="geometry" />
        </mxCell>
        <mxCell id="9D-JCPpdXV5FDKFmt_kk-51" value="-btnHome: Button" style="text;strokeColor=#000000;fillColor=#5500FF;align=left;verticalAlign=top;spacingLeft=4;spacingRight=4;overflow=hidden;rotatable=0;points=[[0,0.5],[1,0.5]];portConstraint=eastwest;whiteSpace=wrap;html=1;fontColor=#FFFFFF;" parent="jPaITzh1_wMs5D8MoFJ9-192" vertex="1">
          <mxGeometry y="234" width="340" height="26" as="geometry" />
        </mxCell>
        <mxCell id="9D-JCPpdXV5FDKFmt_kk-50" value="-btnSearch: Button" style="text;strokeColor=#000000;fillColor=#5500FF;align=left;verticalAlign=top;spacingLeft=4;spacingRight=4;overflow=hidden;rotatable=0;points=[[0,0.5],[1,0.5]];portConstraint=eastwest;whiteSpace=wrap;html=1;fontColor=#FFFFFF;" parent="jPaITzh1_wMs5D8MoFJ9-192" vertex="1">
          <mxGeometry y="260" width="340" height="26" as="geometry" />
        </mxCell>
        <mxCell id="9D-JCPpdXV5FDKFmt_kk-49" value="-btnProfile: Button" style="text;strokeColor=#000000;fillColor=#5500FF;align=left;verticalAlign=top;spacingLeft=4;spacingRight=4;overflow=hidden;rotatable=0;points=[[0,0.5],[1,0.5]];portConstraint=eastwest;whiteSpace=wrap;html=1;fontColor=#FFFFFF;" parent="jPaITzh1_wMs5D8MoFJ9-192" vertex="1">
          <mxGeometry y="286" width="340" height="26" as="geometry" />
        </mxCell>
        <mxCell id="jPaITzh1_wMs5D8MoFJ9-194" value="" style="line;strokeWidth=1;fillColor=#5500FF;align=left;verticalAlign=middle;spacingTop=-1;spacingLeft=3;spacingRight=3;rotatable=0;labelPosition=right;points=[];portConstraint=eastwest;strokeColor=#000000;fontColor=#FFFFFF;" parent="jPaITzh1_wMs5D8MoFJ9-192" vertex="1">
          <mxGeometry y="312" width="340" height="8" as="geometry" />
        </mxCell>
        <mxCell id="GOw8maG6rHlXjGwnNqGd-41" value="+ CreateEventGUI()" style="text;strokeColor=#000000;fillColor=#5500FF;align=left;verticalAlign=top;spacingLeft=4;spacingRight=4;overflow=hidden;rotatable=0;points=[[0,0.5],[1,0.5]];portConstraint=eastwest;whiteSpace=wrap;html=1;fontColor=#FFFFFF;" parent="jPaITzh1_wMs5D8MoFJ9-192" vertex="1">
          <mxGeometry y="320" width="340" height="26" as="geometry" />
        </mxCell>
        <mxCell id="jPaITzh1_wMs5D8MoFJ9-195" value="+btnUploadPhotosPress(): void" style="text;strokeColor=#000000;fillColor=#5500FF;align=left;verticalAlign=top;spacingLeft=4;spacingRight=4;overflow=hidden;rotatable=0;points=[[0,0.5],[1,0.5]];portConstraint=eastwest;whiteSpace=wrap;html=1;fontColor=#FFFFFF;" parent="jPaITzh1_wMs5D8MoFJ9-192" vertex="1">
          <mxGeometry y="346" width="340" height="26" as="geometry" />
        </mxCell>
        <mxCell id="9D-JCPpdXV5FDKFmt_kk-48" value="+btnSelectLocationPress(): void" style="text;align=left;verticalAlign=top;spacingLeft=4;spacingRight=4;overflow=hidden;rotatable=0;points=[[0,0.5],[1,0.5]];portConstraint=eastwest;whiteSpace=wrap;html=1;strokeColor=#000000;fillColor=#5500FF;fontColor=#FFFFFF;" parent="jPaITzh1_wMs5D8MoFJ9-192" vertex="1">
          <mxGeometry y="372" width="340" height="26" as="geometry" />
        </mxCell>
        <mxCell id="9D-JCPpdXV5FDKFmt_kk-47" value="+btnSelectDateTimePress(): void" style="text;strokeColor=#000000;fillColor=#5500FF;align=left;verticalAlign=top;spacingLeft=4;spacingRight=4;overflow=hidden;rotatable=0;points=[[0,0.5],[1,0.5]];portConstraint=eastwest;whiteSpace=wrap;html=1;fontColor=#FFFFFF;" parent="jPaITzh1_wMs5D8MoFJ9-192" vertex="1">
          <mxGeometry y="398" width="340" height="26" as="geometry" />
        </mxCell>
        <mxCell id="9D-JCPpdXV5FDKFmt_kk-46" value="+btnSelectCategoriesPress(): void" style="text;align=left;verticalAlign=top;spacingLeft=4;spacingRight=4;overflow=hidden;rotatable=0;points=[[0,0.5],[1,0.5]];portConstraint=eastwest;whiteSpace=wrap;html=1;strokeColor=#000000;fillColor=#5500FF;fontColor=#FFFFFF;" parent="jPaITzh1_wMs5D8MoFJ9-192" vertex="1">
          <mxGeometry y="424" width="340" height="26" as="geometry" />
        </mxCell>
        <mxCell id="9D-JCPpdXV5FDKFmt_kk-54" value="+btnHomePress(): void" style="text;strokeColor=#000000;fillColor=#5500FF;align=left;verticalAlign=top;spacingLeft=4;spacingRight=4;overflow=hidden;rotatable=0;points=[[0,0.5],[1,0.5]];portConstraint=eastwest;whiteSpace=wrap;html=1;fontColor=#FFFFFF;" parent="jPaITzh1_wMs5D8MoFJ9-192" vertex="1">
          <mxGeometry y="450" width="340" height="26" as="geometry" />
        </mxCell>
        <mxCell id="9D-JCPpdXV5FDKFmt_kk-53" value="+btnSearchPress(): void" style="text;strokeColor=#000000;fillColor=#5500FF;align=left;verticalAlign=top;spacingLeft=4;spacingRight=4;overflow=hidden;rotatable=0;points=[[0,0.5],[1,0.5]];portConstraint=eastwest;whiteSpace=wrap;html=1;fontColor=#FFFFFF;" parent="jPaITzh1_wMs5D8MoFJ9-192" vertex="1">
          <mxGeometry y="476" width="340" height="26" as="geometry" />
        </mxCell>
        <mxCell id="9D-JCPpdXV5FDKFmt_kk-52" value="+btnProfilePress(): void" style="text;strokeColor=#000000;fillColor=#5500FF;align=left;verticalAlign=top;spacingLeft=4;spacingRight=4;overflow=hidden;rotatable=0;points=[[0,0.5],[1,0.5]];portConstraint=eastwest;whiteSpace=wrap;html=1;fontColor=#FFFFFF;" parent="jPaITzh1_wMs5D8MoFJ9-192" vertex="1">
          <mxGeometry y="502" width="340" height="26" as="geometry" />
        </mxCell>
        <mxCell id="U0l2AVK42Dn3-A5_-HGm-49" value="ProxyDBController" style="swimlane;fontStyle=1;align=center;verticalAlign=top;childLayout=stackLayout;horizontal=1;startSize=26;horizontalStack=0;resizeParent=1;resizeParentMax=0;resizeLast=0;collapsible=1;marginBottom=0;whiteSpace=wrap;html=1;strokeColor=default;shadow=1;fillColor=#FFFF00;gradientColor=#FFB200;" parent="1" vertex="1">
          <mxGeometry x="-2689" y="529" width="500" height="974" as="geometry">
            <mxRectangle x="-1771" y="1934" width="266" height="66" as="alternateBounds" />
          </mxGeometry>
        </mxCell>
        <mxCell id="U0l2AVK42Dn3-A5_-HGm-45" value="+ id: int" style="text;strokeColor=default;fillColor=none;align=left;verticalAlign=top;spacingLeft=4;spacingRight=4;overflow=hidden;rotatable=0;points=[[0,0.5],[1,0.5]];portConstraint=eastwest;whiteSpace=wrap;html=1;shadow=1;fontStyle=0" parent="U0l2AVK42Dn3-A5_-HGm-49" vertex="1">
          <mxGeometry y="26" width="500" height="26" as="geometry" />
        </mxCell>
        <mxCell id="U0l2AVK42Dn3-A5_-HGm-46" value="+ dbConnection: DatabaseConnection" style="text;strokeColor=default;fillColor=none;align=left;verticalAlign=top;spacingLeft=4;spacingRight=4;overflow=hidden;rotatable=0;points=[[0,0.5],[1,0.5]];portConstraint=eastwest;whiteSpace=wrap;html=1;shadow=1;fontStyle=0" parent="U0l2AVK42Dn3-A5_-HGm-49" vertex="1">
          <mxGeometry y="52" width="500" height="26" as="geometry" />
        </mxCell>
        <mxCell id="U0l2AVK42Dn3-A5_-HGm-47" value="- cache: Map&amp;lt;String, Object&amp;gt;" style="text;strokeColor=default;fillColor=none;align=left;verticalAlign=top;spacingLeft=4;spacingRight=4;overflow=hidden;rotatable=0;points=[[0,0.5],[1,0.5]];portConstraint=eastwest;whiteSpace=wrap;html=1;shadow=1;fontStyle=0" parent="U0l2AVK42Dn3-A5_-HGm-49" vertex="1">
          <mxGeometry y="78" width="500" height="26" as="geometry" />
        </mxCell>
        <mxCell id="U0l2AVK42Dn3-A5_-HGm-48" value="- lastFetched: LocalDateTIme" style="text;strokeColor=default;fillColor=none;align=left;verticalAlign=top;spacingLeft=4;spacingRight=4;overflow=hidden;rotatable=0;points=[[0,0.5],[1,0.5]];portConstraint=eastwest;whiteSpace=wrap;html=1;shadow=1;fontStyle=0" parent="U0l2AVK42Dn3-A5_-HGm-49" vertex="1">
          <mxGeometry y="104" width="500" height="26" as="geometry" />
        </mxCell>
        <mxCell id="U0l2AVK42Dn3-A5_-HGm-51" value="" style="line;strokeWidth=1;fillColor=none;align=left;verticalAlign=middle;spacingTop=-1;spacingLeft=3;spacingRight=3;rotatable=0;labelPosition=right;points=[];portConstraint=eastwest;strokeColor=default;shadow=1;fontStyle=0" parent="U0l2AVK42Dn3-A5_-HGm-49" vertex="1">
          <mxGeometry y="130" width="500" height="8" as="geometry" />
        </mxCell>
        <mxCell id="U0l2AVK42Dn3-A5_-HGm-53" value="+ ProxyDBController()" style="text;strokeColor=#000000;fillColor=light-dark(#FFFF00,#FFFF00);align=left;verticalAlign=top;spacingLeft=4;spacingRight=4;overflow=hidden;rotatable=0;points=[[0,0.5],[1,0.5]];portConstraint=eastwest;whiteSpace=wrap;html=1;shadow=1;fontColor=#000000;fontStyle=0;gradientColor=#FFB200;" parent="U0l2AVK42Dn3-A5_-HGm-49" vertex="1">
          <mxGeometry y="138" width="500" height="26" as="geometry" />
        </mxCell>
        <mxCell id="CeRw56cfuyo3TGLGe_MA-16" value="+ getAccountEvents(accountId: int): List&amp;lt;EventEntity&amp;gt;" style="text;strokeColor=#9673a6;fillColor=#e1d5e7;align=left;verticalAlign=top;spacingLeft=4;spacingRight=4;overflow=hidden;rotatable=0;points=[[0,0.5],[1,0.5]];portConstraint=eastwest;whiteSpace=wrap;html=1;shadow=1;fontStyle=0" parent="U0l2AVK42Dn3-A5_-HGm-49" vertex="1">
          <mxGeometry y="164" width="500" height="26" as="geometry" />
        </mxCell>
        <mxCell id="CeRw56cfuyo3TGLGe_MA-15" value="+ getVenueEvents(venueId: int): List&amp;lt;EventEntity&amp;gt;" style="text;strokeColor=#9673a6;fillColor=#e1d5e7;align=left;verticalAlign=top;spacingLeft=4;spacingRight=4;overflow=hidden;rotatable=0;points=[[0,0.5],[1,0.5]];portConstraint=eastwest;whiteSpace=wrap;html=1;shadow=1;fontStyle=0" parent="U0l2AVK42Dn3-A5_-HGm-49" vertex="1">
          <mxGeometry y="190" width="500" height="30" as="geometry" />
        </mxCell>
        <mxCell id="CeRw56cfuyo3TGLGe_MA-13" value="+ getEventFeed(accountId: int): EventEntity" style="text;strokeColor=#9673a6;fillColor=#e1d5e7;align=left;verticalAlign=top;spacingLeft=4;spacingRight=4;overflow=hidden;rotatable=0;points=[[0,0.5],[1,0.5]];portConstraint=eastwest;whiteSpace=wrap;html=1;shadow=1;fontStyle=0" parent="U0l2AVK42Dn3-A5_-HGm-49" vertex="1">
          <mxGeometry y="220" width="500" height="26" as="geometry" />
        </mxCell>
        <mxCell id="CeRw56cfuyo3TGLGe_MA-12" value="+ getNearbyEvents(location: String): List&amp;lt;EventEntity&amp;gt;" style="text;strokeColor=#9673a6;fillColor=#e1d5e7;align=left;verticalAlign=top;spacingLeft=4;spacingRight=4;overflow=hidden;rotatable=0;points=[[0,0.5],[1,0.5]];portConstraint=eastwest;whiteSpace=wrap;html=1;shadow=1;fontStyle=0" parent="U0l2AVK42Dn3-A5_-HGm-49" vertex="1">
          <mxGeometry y="246" width="500" height="26" as="geometry" />
        </mxCell>
        <mxCell id="CeRw56cfuyo3TGLGe_MA-8" value="+ getEventsByFilters(filters: String[]): List&amp;lt;EventEntity&amp;gt;" style="text;align=left;verticalAlign=top;spacingLeft=4;spacingRight=4;overflow=hidden;rotatable=0;points=[[0,0.5],[1,0.5]];portConstraint=eastwest;whiteSpace=wrap;html=1;fillColor=#e1d5e7;strokeColor=#9673a6;shadow=1;fontStyle=0" parent="U0l2AVK42Dn3-A5_-HGm-49" vertex="1">
          <mxGeometry y="272" width="500" height="26" as="geometry" />
        </mxCell>
        <mxCell id="8rEBr2aL7rWZqsQNYB0q-47" value="+ getEventsByKeywords(keywords: String[]): List&amp;lt;EventEntity&amp;gt;" style="text;align=left;verticalAlign=top;spacingLeft=4;spacingRight=4;overflow=hidden;rotatable=0;points=[[0,0.5],[1,0.5]];portConstraint=eastwest;whiteSpace=wrap;html=1;fillColor=#e1d5e7;strokeColor=#9673a6;shadow=1;fontStyle=0" parent="U0l2AVK42Dn3-A5_-HGm-49" vertex="1">
          <mxGeometry y="298" width="500" height="26" as="geometry" />
        </mxCell>
        <mxCell id="CeRw56cfuyo3TGLGe_MA-11" value="+ getLikedEvents(accountId: int): List&amp;lt;EventEntity&amp;gt;" style="text;strokeColor=#9673a6;fillColor=#e1d5e7;align=left;verticalAlign=top;spacingLeft=4;spacingRight=4;overflow=hidden;rotatable=0;points=[[0,0.5],[1,0.5]];portConstraint=eastwest;whiteSpace=wrap;html=1;shadow=1;fontStyle=0" parent="U0l2AVK42Dn3-A5_-HGm-49" vertex="1">
          <mxGeometry y="324" width="500" height="26" as="geometry" />
        </mxCell>
        <mxCell id="CeRw56cfuyo3TGLGe_MA-10" value="+ getAllEvents(): List&amp;lt;EventEntity&amp;gt;" style="text;strokeColor=#9673a6;fillColor=#e1d5e7;align=left;verticalAlign=top;spacingLeft=4;spacingRight=4;overflow=hidden;rotatable=0;points=[[0,0.5],[1,0.5]];portConstraint=eastwest;whiteSpace=wrap;html=1;shadow=1;fontStyle=0" parent="U0l2AVK42Dn3-A5_-HGm-49" vertex="1">
          <mxGeometry y="350" width="500" height="26" as="geometry" />
        </mxCell>
        <mxCell id="CeRw56cfuyo3TGLGe_MA-9" value="+ getNotifiedEvents(accountId: int): List&amp;lt;EventEntity&amp;gt;" style="text;strokeColor=#9673a6;fillColor=#e1d5e7;align=left;verticalAlign=top;spacingLeft=4;spacingRight=4;overflow=hidden;rotatable=0;points=[[0,0.5],[1,0.5]];portConstraint=eastwest;whiteSpace=wrap;html=1;shadow=1;fontStyle=0" parent="U0l2AVK42Dn3-A5_-HGm-49" vertex="1">
          <mxGeometry y="376" width="500" height="26" as="geometry" />
        </mxCell>
        <mxCell id="CeRw56cfuyo3TGLGe_MA-17" value="+ deleteEvent(eventId: int): void" style="text;strokeColor=default;fillColor=#b0e3e6;align=left;verticalAlign=top;spacingLeft=4;spacingRight=4;overflow=hidden;rotatable=0;points=[[0,0.5],[1,0.5]];portConstraint=eastwest;whiteSpace=wrap;html=1;shadow=1;fontStyle=0" parent="U0l2AVK42Dn3-A5_-HGm-49" vertex="1">
          <mxGeometry y="402" width="500" height="26" as="geometry" />
        </mxCell>
        <mxCell id="CeRw56cfuyo3TGLGe_MA-18" value="+ createEvent(event: EventEntity): void" style="text;strokeColor=default;fillColor=#b0e3e6;align=left;verticalAlign=top;spacingLeft=4;spacingRight=4;overflow=hidden;rotatable=0;points=[[0,0.5],[1,0.5]];portConstraint=eastwest;whiteSpace=wrap;html=1;shadow=1;fontStyle=0" parent="U0l2AVK42Dn3-A5_-HGm-49" vertex="1">
          <mxGeometry y="428" width="500" height="26" as="geometry" />
        </mxCell>
        <mxCell id="CeRw56cfuyo3TGLGe_MA-19" value="+ editEvent(event: EventEntity): void" style="text;strokeColor=default;fillColor=#b0e3e6;align=left;verticalAlign=top;spacingLeft=4;spacingRight=4;overflow=hidden;rotatable=0;points=[[0,0.5],[1,0.5]];portConstraint=eastwest;whiteSpace=wrap;html=1;shadow=1;fontStyle=0" parent="U0l2AVK42Dn3-A5_-HGm-49" vertex="1">
          <mxGeometry y="454" width="500" height="26" as="geometry" />
        </mxCell>
        <mxCell id="CeRw56cfuyo3TGLGe_MA-20" value="+ getΑccountById(accountId: int): AccountEntity" style="text;strokeColor=#9673a6;fillColor=#e1d5e7;align=left;verticalAlign=top;spacingLeft=4;spacingRight=4;overflow=hidden;rotatable=0;points=[[0,0.5],[1,0.5]];portConstraint=eastwest;whiteSpace=wrap;html=1;shadow=1;fontStyle=0" parent="U0l2AVK42Dn3-A5_-HGm-49" vertex="1">
          <mxGeometry y="480" width="500" height="26" as="geometry" />
        </mxCell>
        <mxCell id="CeRw56cfuyo3TGLGe_MA-24" value="+ getFollowingEntities(accountId: int): Map&amp;lt;String, AccountEntity/VenueEntity&amp;gt;" style="text;strokeColor=default;fillColor=#d0cee2;align=left;verticalAlign=top;spacingLeft=4;spacingRight=4;overflow=hidden;rotatable=0;points=[[0,0.5],[1,0.5]];portConstraint=eastwest;whiteSpace=wrap;html=1;shadow=1;fontStyle=0" parent="U0l2AVK42Dn3-A5_-HGm-49" vertex="1">
          <mxGeometry y="506" width="500" height="26" as="geometry" />
        </mxCell>
        <mxCell id="CeRw56cfuyo3TGLGe_MA-23" value="+ getEventVenue(eventId: int): VenueEntity" style="text;strokeColor=default;fillColor=#d0cee2;align=left;verticalAlign=top;spacingLeft=4;spacingRight=4;overflow=hidden;rotatable=0;points=[[0,0.5],[1,0.5]];portConstraint=eastwest;whiteSpace=wrap;html=1;shadow=1;fontStyle=0" parent="U0l2AVK42Dn3-A5_-HGm-49" vertex="1">
          <mxGeometry y="532" width="500" height="26" as="geometry" />
        </mxCell>
        <mxCell id="CeRw56cfuyo3TGLGe_MA-22" value="+ getEventOwner(eventId: int): AccountEntity" style="text;strokeColor=default;fillColor=#d0cee2;align=left;verticalAlign=top;spacingLeft=4;spacingRight=4;overflow=hidden;rotatable=0;points=[[0,0.5],[1,0.5]];portConstraint=eastwest;whiteSpace=wrap;html=1;shadow=1;fontStyle=0" parent="U0l2AVK42Dn3-A5_-HGm-49" vertex="1">
          <mxGeometry y="558" width="500" height="26" as="geometry" />
        </mxCell>
        <mxCell id="CeRw56cfuyo3TGLGe_MA-21" value="+ getEventDetails(eventId: int): EventEntity" style="text;strokeColor=default;fillColor=#d0cee2;align=left;verticalAlign=top;spacingLeft=4;spacingRight=4;overflow=hidden;rotatable=0;points=[[0,0.5],[1,0.5]];portConstraint=eastwest;whiteSpace=wrap;html=1;shadow=1;fontStyle=0" parent="U0l2AVK42Dn3-A5_-HGm-49" vertex="1">
          <mxGeometry y="584" width="500" height="26" as="geometry" />
        </mxCell>
        <mxCell id="NR3JPTZGQrciZuihDhtA-40" value="+ searchVenuesByName(name: String): List&amp;lt;VenueEntity&amp;gt;" style="text;align=left;verticalAlign=top;spacingLeft=4;spacingRight=4;overflow=hidden;rotatable=0;points=[[0,0.5],[1,0.5]];portConstraint=eastwest;whiteSpace=wrap;html=1;shadow=1;fillColor=#fff2cc;strokeColor=#d6b656;fontStyle=0" parent="U0l2AVK42Dn3-A5_-HGm-49" vertex="1">
          <mxGeometry y="610" width="500" height="26" as="geometry" />
        </mxCell>
        <mxCell id="NR3JPTZGQrciZuihDhtA-39" value="+ searchAccountsByName(name: String): List&amp;lt;AccountEntity&amp;gt;" style="text;align=left;verticalAlign=top;spacingLeft=4;spacingRight=4;overflow=hidden;rotatable=0;points=[[0,0.5],[1,0.5]];portConstraint=eastwest;whiteSpace=wrap;html=1;shadow=1;fillColor=#fff2cc;strokeColor=#d6b656;fontStyle=0" parent="U0l2AVK42Dn3-A5_-HGm-49" vertex="1">
          <mxGeometry y="636" width="500" height="26" as="geometry" />
        </mxCell>
        <mxCell id="CeRw56cfuyo3TGLGe_MA-36" value="+ rejectAccountVerification(accountId: int, message: String): void" style="text;strokeColor=#b85450;fillColor=#f8cecc;align=left;verticalAlign=top;spacingLeft=4;spacingRight=4;overflow=hidden;rotatable=0;points=[[0,0.5],[1,0.5]];portConstraint=eastwest;whiteSpace=wrap;html=1;shadow=1;fontStyle=0" parent="U0l2AVK42Dn3-A5_-HGm-49" vertex="1">
          <mxGeometry y="662" width="500" height="26" as="geometry" />
        </mxCell>
        <mxCell id="CeRw56cfuyo3TGLGe_MA-35" value="+ verifyAccount(accountId: int): void" style="text;strokeColor=#b85450;fillColor=#f8cecc;align=left;verticalAlign=top;spacingLeft=4;spacingRight=4;overflow=hidden;rotatable=0;points=[[0,0.5],[1,0.5]];portConstraint=eastwest;whiteSpace=wrap;html=1;shadow=1;fontStyle=0" parent="U0l2AVK42Dn3-A5_-HGm-49" vertex="1">
          <mxGeometry y="688" width="500" height="26" as="geometry" />
        </mxCell>
        <mxCell id="CeRw56cfuyo3TGLGe_MA-33" value="+ isAccountVerified(accountId: int): bool" style="text;strokeColor=#b85450;fillColor=#f8cecc;align=left;verticalAlign=top;spacingLeft=4;spacingRight=4;overflow=hidden;rotatable=0;points=[[0,0.5],[1,0.5]];portConstraint=eastwest;whiteSpace=wrap;html=1;shadow=1;fontStyle=0" parent="U0l2AVK42Dn3-A5_-HGm-49" vertex="1">
          <mxGeometry y="714" width="500" height="26" as="geometry" />
        </mxCell>
        <mxCell id="CeRw56cfuyo3TGLGe_MA-37" value="+ getVerificationStatus(accountId: int): VerificationStatus" style="text;strokeColor=#b85450;fillColor=#f8cecc;align=left;verticalAlign=top;spacingLeft=4;spacingRight=4;overflow=hidden;rotatable=0;points=[[0,0.5],[1,0.5]];portConstraint=eastwest;whiteSpace=wrap;html=1;shadow=1;fontStyle=0" parent="U0l2AVK42Dn3-A5_-HGm-49" vertex="1">
          <mxGeometry y="740" width="500" height="26" as="geometry" />
        </mxCell>
        <mxCell id="CeRw56cfuyo3TGLGe_MA-38" value="+ updateVerificationRequest(accountId: int, files: String[]): void" style="text;strokeColor=#b85450;fillColor=#f8cecc;align=left;verticalAlign=top;spacingLeft=4;spacingRight=4;overflow=hidden;rotatable=0;points=[[0,0.5],[1,0.5]];portConstraint=eastwest;whiteSpace=wrap;html=1;shadow=1;fontStyle=0" parent="U0l2AVK42Dn3-A5_-HGm-49" vertex="1">
          <mxGeometry y="766" width="500" height="26" as="geometry" />
        </mxCell>
        <mxCell id="CeRw56cfuyo3TGLGe_MA-34" value="+ getVerificationRequests(): List&amp;lt;VerificationEntity&amp;gt;" style="text;strokeColor=#b85450;fillColor=#f8cecc;align=left;verticalAlign=top;spacingLeft=4;spacingRight=4;overflow=hidden;rotatable=0;points=[[0,0.5],[1,0.5]];portConstraint=eastwest;whiteSpace=wrap;html=1;shadow=1;fontStyle=0" parent="U0l2AVK42Dn3-A5_-HGm-49" vertex="1">
          <mxGeometry y="792" width="500" height="26" as="geometry" />
        </mxCell>
        <mxCell id="CeRw56cfuyo3TGLGe_MA-29" value="+ getAccountReviews(accountId: int): List&amp;lt;ReviewEntity&amp;gt;" style="text;strokeColor=#d6b656;fillColor=#fff2cc;align=left;verticalAlign=top;spacingLeft=4;spacingRight=4;overflow=hidden;rotatable=0;points=[[0,0.5],[1,0.5]];portConstraint=eastwest;whiteSpace=wrap;html=1;shadow=1;fontStyle=0" parent="U0l2AVK42Dn3-A5_-HGm-49" vertex="1">
          <mxGeometry y="818" width="500" height="26" as="geometry" />
        </mxCell>
        <mxCell id="CeRw56cfuyo3TGLGe_MA-28" value="+ createReview(review: ReviewEntity): void" style="text;strokeColor=#d6b656;fillColor=#fff2cc;align=left;verticalAlign=top;spacingLeft=4;spacingRight=4;overflow=hidden;rotatable=0;points=[[0,0.5],[1,0.5]];portConstraint=eastwest;whiteSpace=wrap;html=1;shadow=1;fontStyle=0" parent="U0l2AVK42Dn3-A5_-HGm-49" vertex="1">
          <mxGeometry y="844" width="500" height="26" as="geometry" />
        </mxCell>
        <mxCell id="CeRw56cfuyo3TGLGe_MA-27" value="+ editReview(review: ReviewEntity): void" style="text;strokeColor=#d6b656;fillColor=#fff2cc;align=left;verticalAlign=top;spacingLeft=4;spacingRight=4;overflow=hidden;rotatable=0;points=[[0,0.5],[1,0.5]];portConstraint=eastwest;whiteSpace=wrap;html=1;shadow=1;fontStyle=0" parent="U0l2AVK42Dn3-A5_-HGm-49" vertex="1">
          <mxGeometry y="870" width="500" height="26" as="geometry" />
        </mxCell>
        <mxCell id="CeRw56cfuyo3TGLGe_MA-26" value="+ deleteReview(reviewId: int): void" style="text;strokeColor=#d6b656;fillColor=#fff2cc;align=left;verticalAlign=top;spacingLeft=4;spacingRight=4;overflow=hidden;rotatable=0;points=[[0,0.5],[1,0.5]];portConstraint=eastwest;whiteSpace=wrap;html=1;shadow=1;fontStyle=0" parent="U0l2AVK42Dn3-A5_-HGm-49" vertex="1">
          <mxGeometry y="896" width="500" height="26" as="geometry" />
        </mxCell>
        <mxCell id="CeRw56cfuyo3TGLGe_MA-25" value="+ getEventReview(eventId: int): List&amp;lt;ReniewEntity&amp;gt;" style="text;strokeColor=#d6b656;fillColor=#fff2cc;align=left;verticalAlign=top;spacingLeft=4;spacingRight=4;overflow=hidden;rotatable=0;points=[[0,0.5],[1,0.5]];portConstraint=eastwest;whiteSpace=wrap;html=1;shadow=1;fontStyle=0" parent="U0l2AVK42Dn3-A5_-HGm-49" vertex="1">
          <mxGeometry y="922" width="500" height="26" as="geometry" />
        </mxCell>
        <mxCell id="CeRw56cfuyo3TGLGe_MA-40" value="- updateCache(): void" style="text;strokeColor=default;fillColor=none;align=left;verticalAlign=top;spacingLeft=4;spacingRight=4;overflow=hidden;rotatable=0;points=[[0,0.5],[1,0.5]];portConstraint=eastwest;whiteSpace=wrap;html=1;shadow=1;fontStyle=0" parent="U0l2AVK42Dn3-A5_-HGm-49" vertex="1">
          <mxGeometry y="948" width="500" height="26" as="geometry" />
        </mxCell>
        <mxCell id="GOw8maG6rHlXjGwnNqGd-124" value="&amp;nbsp;" style="text;whiteSpace=wrap;html=1;" parent="1" vertex="1">
          <mxGeometry x="-3365.666666666666" y="-1314.9966666666664" width="31" height="36" as="geometry" />
        </mxCell>
        <mxCell id="Jv0Wbk9GjLyNe4X2V1_I-127" style="edgeStyle=orthogonalEdgeStyle;rounded=0;orthogonalLoop=1;jettySize=auto;html=1;exitX=0.5;exitY=1;exitDx=0;exitDy=0;exitPerimeter=0;" parent="1" edge="1">
          <mxGeometry relative="1" as="geometry">
            <mxPoint x="-3262.5" y="-11.99999999999909" as="sourcePoint" />
            <mxPoint x="-3262.5" y="-11.99999999999909" as="targetPoint" />
          </mxGeometry>
        </mxCell>
        <mxCell id="Jv0Wbk9GjLyNe4X2V1_I-183" value="&lt;b&gt;&lt;font style=&quot;font-size: 15px;&quot;&gt;Manage Events Package&lt;/font&gt;&lt;/b&gt;" style="text;html=1;align=center;verticalAlign=middle;resizable=0;points=[];autosize=1;strokeColor=none;fillColor=none;" parent="1" vertex="1">
          <mxGeometry x="-2301" y="-419" width="192" height="30" as="geometry" />
        </mxCell>
        <mxCell id="PC12vPVq4i0meeTjriCz-40" style="edgeStyle=orthogonalEdgeStyle;rounded=0;orthogonalLoop=1;jettySize=auto;html=1;exitX=0;exitY=0.5;exitDx=0;exitDy=0;entryX=1;entryY=0.5;entryDx=0;entryDy=0;endArrow=none;startFill=0;" parent="1" source="6jnvJd_KVT4TXYjh_vCa-18" target="r6K4Pp1mrl-VjJb1cEgy-37" edge="1">
          <mxGeometry relative="1" as="geometry" />
        </mxCell>
        <mxCell id="PC12vPVq4i0meeTjriCz-43" style="edgeStyle=orthogonalEdgeStyle;rounded=0;orthogonalLoop=1;jettySize=auto;html=1;exitX=1;exitY=0.5;exitDx=0;exitDy=0;entryX=0;entryY=0.5;entryDx=0;entryDy=0;endArrow=none;startFill=0;" parent="1" source="ba5yC0drVQ4_OKnRPl2F-20" target="CeRw56cfuyo3TGLGe_MA-101" edge="1">
          <mxGeometry relative="1" as="geometry" />
        </mxCell>
        <mxCell id="PC12vPVq4i0meeTjriCz-45" value="1" style="text;html=1;align=center;verticalAlign=middle;resizable=0;points=[];autosize=1;strokeColor=none;fillColor=none;" parent="1" vertex="1">
          <mxGeometry x="-2095" y="32" width="25" height="26" as="geometry" />
        </mxCell>
        <mxCell id="PC12vPVq4i0meeTjriCz-46" value="1" style="text;html=1;align=center;verticalAlign=middle;resizable=0;points=[];autosize=1;strokeColor=none;fillColor=none;" parent="1" vertex="1">
          <mxGeometry x="-1988" y="-221" width="25" height="26" as="geometry" />
        </mxCell>
        <mxCell id="PC12vPVq4i0meeTjriCz-47" value="1" style="text;html=1;align=center;verticalAlign=middle;resizable=0;points=[];autosize=1;strokeColor=none;fillColor=none;" parent="1" vertex="1">
          <mxGeometry x="-1388" y="94" width="25" height="26" as="geometry" />
        </mxCell>
        <mxCell id="PC12vPVq4i0meeTjriCz-48" value="1" style="text;html=1;align=center;verticalAlign=middle;resizable=0;points=[];autosize=1;strokeColor=none;fillColor=none;" parent="1" vertex="1">
          <mxGeometry x="-1501" y="289" width="25" height="26" as="geometry" />
        </mxCell>
        <mxCell id="PC12vPVq4i0meeTjriCz-49" value="1" style="text;html=1;align=center;verticalAlign=middle;resizable=0;points=[];autosize=1;strokeColor=none;fillColor=none;" parent="1" vertex="1">
          <mxGeometry x="-1632" y="501" width="25" height="26" as="geometry" />
        </mxCell>
        <mxCell id="PC12vPVq4i0meeTjriCz-50" value="1" style="text;html=1;align=center;verticalAlign=middle;resizable=0;points=[];autosize=1;strokeColor=none;fillColor=none;" parent="1" vertex="1">
          <mxGeometry x="-1801" y="408" width="25" height="26" as="geometry" />
        </mxCell>
        <mxCell id="PC12vPVq4i0meeTjriCz-51" value="1" style="text;html=1;align=center;verticalAlign=middle;resizable=0;points=[];autosize=1;strokeColor=none;fillColor=none;" parent="1" vertex="1">
          <mxGeometry x="-2005" y="501" width="25" height="26" as="geometry" />
        </mxCell>
        <mxCell id="PC12vPVq4i0meeTjriCz-52" value="1" style="text;html=1;align=center;verticalAlign=middle;resizable=0;points=[];autosize=1;strokeColor=none;fillColor=none;" parent="1" vertex="1">
          <mxGeometry x="-2091" y="404" width="25" height="26" as="geometry" />
        </mxCell>
        <mxCell id="PC12vPVq4i0meeTjriCz-54" value="1" style="text;html=1;align=center;verticalAlign=middle;resizable=0;points=[];autosize=1;strokeColor=none;fillColor=none;" parent="1" vertex="1">
          <mxGeometry x="-2413" y="408" width="25" height="26" as="geometry" />
        </mxCell>
        <mxCell id="PC12vPVq4i0meeTjriCz-55" value="1" style="text;html=1;align=center;verticalAlign=middle;resizable=0;points=[];autosize=1;strokeColor=none;fillColor=none;" parent="1" vertex="1">
          <mxGeometry x="-2435" y="501" width="25" height="26" as="geometry" />
        </mxCell>
        <mxCell id="PC12vPVq4i0meeTjriCz-56" value="1" style="text;html=1;align=center;verticalAlign=middle;resizable=0;points=[];autosize=1;strokeColor=none;fillColor=none;" parent="1" vertex="1">
          <mxGeometry x="-2702" y="233" width="25" height="26" as="geometry" />
        </mxCell>
        <mxCell id="PC12vPVq4i0meeTjriCz-57" value="1" style="text;html=1;align=center;verticalAlign=middle;resizable=0;points=[];autosize=1;strokeColor=none;fillColor=none;" parent="1" vertex="1">
          <mxGeometry x="-2927" y="401" width="25" height="26" as="geometry" />
        </mxCell>
        <mxCell id="PC12vPVq4i0meeTjriCz-62" value="" style="endArrow=block;endSize=16;endFill=0;html=1;rounded=0;exitX=0.5;exitY=1;exitDx=0;exitDy=0;entryX=0.5;entryY=0;entryDx=0;entryDy=0;" parent="1" source="25" target="CeRw56cfuyo3TGLGe_MA-138" edge="1">
          <mxGeometry width="160" relative="1" as="geometry">
            <mxPoint x="-2873" y="-76" as="sourcePoint" />
            <mxPoint x="-2713" y="-76" as="targetPoint" />
          </mxGeometry>
        </mxCell>
        <mxCell id="2oESFZAmB0hPX_HGycgK-25" value="ViewEventDetailsGUI" style="swimlane;fontStyle=1;align=center;verticalAlign=top;childLayout=stackLayout;horizontal=1;startSize=26;horizontalStack=0;resizeParent=1;resizeParentMax=0;resizeLast=0;collapsible=1;marginBottom=0;whiteSpace=wrap;html=1;fillColor=#5500FF;fontColor=#FFFFFF;strokeColor=#000000;" parent="1" vertex="1" collapsed="1">
          <mxGeometry x="-2274" y="-188" width="170" height="26" as="geometry">
            <mxRectangle x="-2929" y="-366" width="320" height="450" as="alternateBounds" />
          </mxGeometry>
        </mxCell>
        <mxCell id="2oESFZAmB0hPX_HGycgK-26" value="-btnMorePics: Button" style="text;strokeColor=#000000;fillColor=#5500FF;align=left;verticalAlign=top;spacingLeft=4;spacingRight=4;overflow=hidden;rotatable=0;points=[[0,0.5],[1,0.5]];portConstraint=eastwest;whiteSpace=wrap;html=1;fontColor=#FFFFFF;" parent="2oESFZAmB0hPX_HGycgK-25" vertex="1">
          <mxGeometry y="26" width="320" height="26" as="geometry" />
        </mxCell>
        <mxCell id="2oESFZAmB0hPX_HGycgK-27" value="-eventTitle: String" style="text;strokeColor=#000000;fillColor=#5500FF;align=left;verticalAlign=top;spacingLeft=4;spacingRight=4;overflow=hidden;rotatable=0;points=[[0,0.5],[1,0.5]];portConstraint=eastwest;whiteSpace=wrap;html=1;fontColor=#FFFFFF;" parent="2oESFZAmB0hPX_HGycgK-25" vertex="1">
          <mxGeometry y="52" width="320" height="26" as="geometry" />
        </mxCell>
        <mxCell id="2oESFZAmB0hPX_HGycgK-28" value="-btnPicThumbnails: Button[]" style="text;strokeColor=#000000;fillColor=#5500FF;align=left;verticalAlign=top;spacingLeft=4;spacingRight=4;overflow=hidden;rotatable=0;points=[[0,0.5],[1,0.5]];portConstraint=eastwest;whiteSpace=wrap;html=1;fontColor=#FFFFFF;" parent="2oESFZAmB0hPX_HGycgK-25" vertex="1">
          <mxGeometry y="78" width="320" height="26" as="geometry" />
        </mxCell>
        <mxCell id="2oESFZAmB0hPX_HGycgK-29" value="-eventDescription: String" style="text;strokeColor=#000000;fillColor=#5500FF;align=left;verticalAlign=top;spacingLeft=4;spacingRight=4;overflow=hidden;rotatable=0;points=[[0,0.5],[1,0.5]];portConstraint=eastwest;whiteSpace=wrap;html=1;fontColor=#FFFFFF;" parent="2oESFZAmB0hPX_HGycgK-25" vertex="1">
          <mxGeometry y="104" width="320" height="26" as="geometry" />
        </mxCell>
        <mxCell id="2oESFZAmB0hPX_HGycgK-30" value="-eventLocation: String" style="text;strokeColor=#000000;fillColor=#5500FF;align=left;verticalAlign=top;spacingLeft=4;spacingRight=4;overflow=hidden;rotatable=0;points=[[0,0.5],[1,0.5]];portConstraint=eastwest;whiteSpace=wrap;html=1;fontColor=#FFFFFF;" parent="2oESFZAmB0hPX_HGycgK-25" vertex="1">
          <mxGeometry y="130" width="320" height="26" as="geometry" />
        </mxCell>
        <mxCell id="2oESFZAmB0hPX_HGycgK-31" value="-eventDateTime: DateTime" style="text;strokeColor=#000000;fillColor=#5500FF;align=left;verticalAlign=top;spacingLeft=4;spacingRight=4;overflow=hidden;rotatable=0;points=[[0,0.5],[1,0.5]];portConstraint=eastwest;whiteSpace=wrap;html=1;fontColor=#FFFFFF;" parent="2oESFZAmB0hPX_HGycgK-25" vertex="1">
          <mxGeometry y="156" width="320" height="26" as="geometry" />
        </mxCell>
        <mxCell id="2oESFZAmB0hPX_HGycgK-32" value="-eventCategories: String[]" style="text;strokeColor=#000000;fillColor=#5500FF;align=left;verticalAlign=top;spacingLeft=4;spacingRight=4;overflow=hidden;rotatable=0;points=[[0,0.5],[1,0.5]];portConstraint=eastwest;whiteSpace=wrap;html=1;fontColor=#FFFFFF;" parent="2oESFZAmB0hPX_HGycgK-25" vertex="1">
          <mxGeometry y="182" width="320" height="26" as="geometry" />
        </mxCell>
        <mxCell id="2oESFZAmB0hPX_HGycgK-33" value="-btnHome: Button" style="text;strokeColor=#000000;fillColor=#5500FF;align=left;verticalAlign=top;spacingLeft=4;spacingRight=4;overflow=hidden;rotatable=0;points=[[0,0.5],[1,0.5]];portConstraint=eastwest;whiteSpace=wrap;html=1;fontColor=#FFFFFF;" parent="2oESFZAmB0hPX_HGycgK-25" vertex="1">
          <mxGeometry y="208" width="320" height="26" as="geometry" />
        </mxCell>
        <mxCell id="2oESFZAmB0hPX_HGycgK-34" value="-btnSearch: Button" style="text;strokeColor=#000000;fillColor=#5500FF;align=left;verticalAlign=top;spacingLeft=4;spacingRight=4;overflow=hidden;rotatable=0;points=[[0,0.5],[1,0.5]];portConstraint=eastwest;whiteSpace=wrap;html=1;fontColor=#FFFFFF;" parent="2oESFZAmB0hPX_HGycgK-25" vertex="1">
          <mxGeometry y="234" width="320" height="26" as="geometry" />
        </mxCell>
        <mxCell id="2oESFZAmB0hPX_HGycgK-35" value="-btnProfile: Button" style="text;strokeColor=#000000;fillColor=#5500FF;align=left;verticalAlign=top;spacingLeft=4;spacingRight=4;overflow=hidden;rotatable=0;points=[[0,0.5],[1,0.5]];portConstraint=eastwest;whiteSpace=wrap;html=1;fontColor=#FFFFFF;" parent="2oESFZAmB0hPX_HGycgK-25" vertex="1">
          <mxGeometry y="260" width="320" height="26" as="geometry" />
        </mxCell>
        <mxCell id="2oESFZAmB0hPX_HGycgK-36" value="" style="line;strokeWidth=1;fillColor=#5500FF;align=left;verticalAlign=middle;spacingTop=-1;spacingLeft=3;spacingRight=3;rotatable=0;labelPosition=right;points=[];portConstraint=eastwest;strokeColor=#000000;fontColor=#FFFFFF;" parent="2oESFZAmB0hPX_HGycgK-25" vertex="1">
          <mxGeometry y="286" width="320" height="8" as="geometry" />
        </mxCell>
        <mxCell id="2oESFZAmB0hPX_HGycgK-37" value="+ ViewEventDetailsGUI()" style="text;align=left;verticalAlign=top;spacingLeft=4;spacingRight=4;overflow=hidden;rotatable=0;points=[[0,0.5],[1,0.5]];portConstraint=eastwest;whiteSpace=wrap;html=1;strokeColor=#000000;fillColor=#5500FF;fontColor=#FFFFFF;" parent="2oESFZAmB0hPX_HGycgK-25" vertex="1">
          <mxGeometry y="294" width="320" height="26" as="geometry" />
        </mxCell>
        <mxCell id="2oESFZAmB0hPX_HGycgK-38" value="+ btnHomePress(): void" style="text;strokeColor=#000000;fillColor=#5500FF;align=left;verticalAlign=top;spacingLeft=4;spacingRight=4;overflow=hidden;rotatable=0;points=[[0,0.5],[1,0.5]];portConstraint=eastwest;whiteSpace=wrap;html=1;fontColor=#FFFFFF;" parent="2oESFZAmB0hPX_HGycgK-25" vertex="1">
          <mxGeometry y="320" width="320" height="26" as="geometry" />
        </mxCell>
        <mxCell id="2oESFZAmB0hPX_HGycgK-39" value="+ btnSearchPress(): void" style="text;strokeColor=#000000;fillColor=#5500FF;align=left;verticalAlign=top;spacingLeft=4;spacingRight=4;overflow=hidden;rotatable=0;points=[[0,0.5],[1,0.5]];portConstraint=eastwest;whiteSpace=wrap;html=1;fontColor=#FFFFFF;" parent="2oESFZAmB0hPX_HGycgK-25" vertex="1">
          <mxGeometry y="346" width="320" height="26" as="geometry" />
        </mxCell>
        <mxCell id="2oESFZAmB0hPX_HGycgK-40" value="+ btnProfilePress(): void" style="text;strokeColor=#000000;fillColor=#5500FF;align=left;verticalAlign=top;spacingLeft=4;spacingRight=4;overflow=hidden;rotatable=0;points=[[0,0.5],[1,0.5]];portConstraint=eastwest;whiteSpace=wrap;html=1;fontColor=#FFFFFF;" parent="2oESFZAmB0hPX_HGycgK-25" vertex="1">
          <mxGeometry y="372" width="320" height="26" as="geometry" />
        </mxCell>
        <mxCell id="2oESFZAmB0hPX_HGycgK-41" value="+ btnPicThumbnailsPress(): void" style="text;strokeColor=#000000;fillColor=#5500FF;align=left;verticalAlign=top;spacingLeft=4;spacingRight=4;overflow=hidden;rotatable=0;points=[[0,0.5],[1,0.5]];portConstraint=eastwest;whiteSpace=wrap;html=1;fontColor=#FFFFFF;" parent="2oESFZAmB0hPX_HGycgK-25" vertex="1">
          <mxGeometry y="398" width="320" height="26" as="geometry" />
        </mxCell>
        <mxCell id="2oESFZAmB0hPX_HGycgK-42" value="+ btnMorePicsPress(): void&lt;div&gt;&lt;br&gt;&lt;/div&gt;" style="text;strokeColor=#000000;fillColor=#5500FF;align=left;verticalAlign=top;spacingLeft=4;spacingRight=4;overflow=hidden;rotatable=0;points=[[0,0.5],[1,0.5]];portConstraint=eastwest;whiteSpace=wrap;html=1;fontColor=#FFFFFF;" parent="2oESFZAmB0hPX_HGycgK-25" vertex="1">
          <mxGeometry y="424" width="320" height="26" as="geometry" />
        </mxCell>
      </root>
    </mxGraphModel>
  </diagram>
</mxfile>
